<?xml version="1.0" encoding="utf-8"?>
<svg xmlns="http://www.w3.org/2000/svg" xmlns:xlink="http://www.w3.org/1999/xlink" width="600" height="400" viewBox="0 0 2400 1600">
<defs>
  <clipPath id="clip560">
    <rect x="0" y="0" width="2400" height="1600"/>
  </clipPath>
</defs>
<path clip-path="url(#clip560)" d="M0 1600 L2400 1600 L2400 0 L0 0  Z" fill="#ffffff" fill-rule="evenodd" fill-opacity="1"/>
<defs>
  <clipPath id="clip561">
    <rect x="524" y="123" width="1561" height="1301"/>
  </clipPath>
</defs>
<path clip-path="url(#clip560)" d="M524.658 1423.18 L2084.31 1423.18 L2084.31 123.472 L524.658 123.472  Z" fill="#ffffff" fill-rule="evenodd" fill-opacity="1"/>
<polyline clip-path="url(#clip561)" style="stroke:#000000; stroke-linecap:round; stroke-linejoin:round; stroke-width:2; stroke-opacity:0.1; fill:none" points="630.106,1423.18 630.106,123.472 "/>
<polyline clip-path="url(#clip561)" style="stroke:#000000; stroke-linecap:round; stroke-linejoin:round; stroke-width:2; stroke-opacity:0.1; fill:none" points="1243.18,1423.18 1243.18,123.472 "/>
<polyline clip-path="url(#clip561)" style="stroke:#000000; stroke-linecap:round; stroke-linejoin:round; stroke-width:2; stroke-opacity:0.1; fill:none" points="1365.79,1423.18 1365.79,123.472 "/>
<polyline clip-path="url(#clip561)" style="stroke:#000000; stroke-linecap:round; stroke-linejoin:round; stroke-width:2; stroke-opacity:0.1; fill:none" points="1978.86,1423.18 1978.86,123.472 "/>
<polyline clip-path="url(#clip561)" style="stroke:#000000; stroke-linecap:round; stroke-linejoin:round; stroke-width:2; stroke-opacity:0.1; fill:none" points="524.658,1325.09 2084.31,1325.09 "/>
<polyline clip-path="url(#clip561)" style="stroke:#000000; stroke-linecap:round; stroke-linejoin:round; stroke-width:2; stroke-opacity:0.1; fill:none" points="524.658,834.633 2084.31,834.633 "/>
<polyline clip-path="url(#clip561)" style="stroke:#000000; stroke-linecap:round; stroke-linejoin:round; stroke-width:2; stroke-opacity:0.1; fill:none" points="524.658,712.019 2084.31,712.019 "/>
<polyline clip-path="url(#clip561)" style="stroke:#000000; stroke-linecap:round; stroke-linejoin:round; stroke-width:2; stroke-opacity:0.1; fill:none" points="524.658,221.563 2084.31,221.563 "/>
<polyline clip-path="url(#clip560)" style="stroke:#000000; stroke-linecap:round; stroke-linejoin:round; stroke-width:4; stroke-opacity:1; fill:none" points="524.658,1423.18 2084.31,1423.18 "/>
<polyline clip-path="url(#clip560)" style="stroke:#000000; stroke-linecap:round; stroke-linejoin:round; stroke-width:4; stroke-opacity:1; fill:none" points="630.106,1423.18 630.106,1404.28 "/>
<polyline clip-path="url(#clip560)" style="stroke:#000000; stroke-linecap:round; stroke-linejoin:round; stroke-width:4; stroke-opacity:1; fill:none" points="1243.18,1423.18 1243.18,1404.28 "/>
<polyline clip-path="url(#clip560)" style="stroke:#000000; stroke-linecap:round; stroke-linejoin:round; stroke-width:4; stroke-opacity:1; fill:none" points="1365.79,1423.18 1365.79,1404.28 "/>
<polyline clip-path="url(#clip560)" style="stroke:#000000; stroke-linecap:round; stroke-linejoin:round; stroke-width:4; stroke-opacity:1; fill:none" points="1978.86,1423.18 1978.86,1404.28 "/>
<path clip-path="url(#clip560)" d="M577.131 1468.75 L606.807 1468.75 L606.807 1472.69 L577.131 1472.69 L577.131 1468.75 Z" fill="#000000" fill-rule="nonzero" fill-opacity="1" /><path clip-path="url(#clip560)" d="M616.946 1451.02 L635.302 1451.02 L635.302 1454.96 L621.228 1454.96 L621.228 1463.43 Q622.247 1463.08 623.265 1462.92 Q624.284 1462.73 625.302 1462.73 Q631.089 1462.73 634.469 1465.9 Q637.849 1469.08 637.849 1474.49 Q637.849 1480.07 634.376 1483.17 Q630.904 1486.25 624.585 1486.25 Q622.409 1486.25 620.14 1485.88 Q617.895 1485.51 615.488 1484.77 L615.488 1480.07 Q617.571 1481.2 619.793 1481.76 Q622.015 1482.32 624.492 1482.32 Q628.497 1482.32 630.835 1480.21 Q633.173 1478.1 633.173 1474.49 Q633.173 1470.88 630.835 1468.77 Q628.497 1466.67 624.492 1466.67 Q622.617 1466.67 620.742 1467.08 Q618.89 1467.5 616.946 1468.38 L616.946 1451.02 Z" fill="#000000" fill-rule="nonzero" fill-opacity="1" /><path clip-path="url(#clip560)" d="M647.062 1479.7 L651.946 1479.7 L651.946 1485.58 L647.062 1485.58 L647.062 1479.7 Z" fill="#000000" fill-rule="nonzero" fill-opacity="1" /><path clip-path="url(#clip560)" d="M662.177 1451.02 L680.534 1451.02 L680.534 1454.96 L666.46 1454.96 L666.46 1463.43 Q667.478 1463.08 668.497 1462.92 Q669.515 1462.73 670.534 1462.73 Q676.321 1462.73 679.7 1465.9 Q683.08 1469.08 683.08 1474.49 Q683.08 1480.07 679.608 1483.17 Q676.135 1486.25 669.816 1486.25 Q667.64 1486.25 665.372 1485.88 Q663.126 1485.51 660.719 1484.77 L660.719 1480.07 Q662.802 1481.2 665.024 1481.76 Q667.247 1482.32 669.723 1482.32 Q673.728 1482.32 676.066 1480.21 Q678.404 1478.1 678.404 1474.49 Q678.404 1470.88 676.066 1468.77 Q673.728 1466.67 669.723 1466.67 Q667.848 1466.67 665.974 1467.08 Q664.122 1467.5 662.177 1468.38 L662.177 1451.02 Z" fill="#000000" fill-rule="nonzero" fill-opacity="1" /><path clip-path="url(#clip560)" d="M1190.2 1468.75 L1219.88 1468.75 L1219.88 1472.69 L1190.2 1472.69 L1190.2 1468.75 Z" fill="#000000" fill-rule="nonzero" fill-opacity="1" /><path clip-path="url(#clip560)" d="M1239.97 1454.1 Q1236.36 1454.1 1234.53 1457.66 Q1232.72 1461.2 1232.72 1468.33 Q1232.72 1475.44 1234.53 1479.01 Q1236.36 1482.55 1239.97 1482.55 Q1243.6 1482.55 1245.41 1479.01 Q1247.24 1475.44 1247.24 1468.33 Q1247.24 1461.2 1245.41 1457.66 Q1243.6 1454.1 1239.97 1454.1 M1239.97 1450.39 Q1245.78 1450.39 1248.84 1455 Q1251.91 1459.58 1251.91 1468.33 Q1251.91 1477.06 1248.84 1481.67 Q1245.78 1486.25 1239.97 1486.25 Q1234.16 1486.25 1231.08 1481.67 Q1228.02 1477.06 1228.02 1468.33 Q1228.02 1459.58 1231.08 1455 Q1234.16 1450.39 1239.97 1450.39 Z" fill="#000000" fill-rule="nonzero" fill-opacity="1" /><path clip-path="url(#clip560)" d="M1260.13 1479.7 L1265.02 1479.7 L1265.02 1485.58 L1260.13 1485.58 L1260.13 1479.7 Z" fill="#000000" fill-rule="nonzero" fill-opacity="1" /><path clip-path="url(#clip560)" d="M1275.25 1451.02 L1293.6 1451.02 L1293.6 1454.96 L1279.53 1454.96 L1279.53 1463.43 Q1280.55 1463.08 1281.57 1462.92 Q1282.58 1462.73 1283.6 1462.73 Q1289.39 1462.73 1292.77 1465.9 Q1296.15 1469.08 1296.15 1474.49 Q1296.15 1480.07 1292.68 1483.17 Q1289.21 1486.25 1282.89 1486.25 Q1280.71 1486.25 1278.44 1485.88 Q1276.2 1485.51 1273.79 1484.77 L1273.79 1480.07 Q1275.87 1481.2 1278.09 1481.76 Q1280.32 1482.32 1282.79 1482.32 Q1286.8 1482.32 1289.14 1480.21 Q1291.47 1478.1 1291.47 1474.49 Q1291.47 1470.88 1289.14 1468.77 Q1286.8 1466.67 1282.79 1466.67 Q1280.92 1466.67 1279.04 1467.08 Q1277.19 1467.5 1275.25 1468.38 L1275.25 1451.02 Z" fill="#000000" fill-rule="nonzero" fill-opacity="1" /><path clip-path="url(#clip560)" d="M1343.67 1454.1 Q1340.06 1454.1 1338.23 1457.66 Q1336.43 1461.2 1336.43 1468.33 Q1336.43 1475.44 1338.23 1479.01 Q1340.06 1482.55 1343.67 1482.55 Q1347.31 1482.55 1349.11 1479.01 Q1350.94 1475.44 1350.94 1468.33 Q1350.94 1461.2 1349.11 1457.66 Q1347.31 1454.1 1343.67 1454.1 M1343.67 1450.39 Q1349.48 1450.39 1352.54 1455 Q1355.62 1459.58 1355.62 1468.33 Q1355.62 1477.06 1352.54 1481.67 Q1349.48 1486.25 1343.67 1486.25 Q1337.86 1486.25 1334.78 1481.67 Q1331.73 1477.06 1331.73 1468.33 Q1331.73 1459.58 1334.78 1455 Q1337.86 1450.39 1343.67 1450.39 Z" fill="#000000" fill-rule="nonzero" fill-opacity="1" /><path clip-path="url(#clip560)" d="M1363.83 1479.7 L1368.72 1479.7 L1368.72 1485.58 L1363.83 1485.58 L1363.83 1479.7 Z" fill="#000000" fill-rule="nonzero" fill-opacity="1" /><path clip-path="url(#clip560)" d="M1378.95 1451.02 L1397.31 1451.02 L1397.31 1454.96 L1383.23 1454.96 L1383.23 1463.43 Q1384.25 1463.08 1385.27 1462.92 Q1386.29 1462.73 1387.31 1462.73 Q1393.09 1462.73 1396.47 1465.9 Q1399.85 1469.08 1399.85 1474.49 Q1399.85 1480.07 1396.38 1483.17 Q1392.91 1486.25 1386.59 1486.25 Q1384.41 1486.25 1382.14 1485.88 Q1379.9 1485.51 1377.49 1484.77 L1377.49 1480.07 Q1379.57 1481.2 1381.8 1481.76 Q1384.02 1482.32 1386.5 1482.32 Q1390.5 1482.32 1392.84 1480.21 Q1395.18 1478.1 1395.18 1474.49 Q1395.18 1470.88 1392.84 1468.77 Q1390.5 1466.67 1386.5 1466.67 Q1384.62 1466.67 1382.75 1467.08 Q1380.89 1467.5 1378.95 1468.38 L1378.95 1451.02 Z" fill="#000000" fill-rule="nonzero" fill-opacity="1" /><path clip-path="url(#clip560)" d="M1946.52 1451.02 L1964.88 1451.02 L1964.88 1454.96 L1950.8 1454.96 L1950.8 1463.43 Q1951.82 1463.08 1952.84 1462.92 Q1953.86 1462.73 1954.88 1462.73 Q1960.66 1462.73 1964.04 1465.9 Q1967.42 1469.08 1967.42 1474.49 Q1967.42 1480.07 1963.95 1483.17 Q1960.48 1486.25 1954.16 1486.25 Q1951.98 1486.25 1949.72 1485.88 Q1947.47 1485.51 1945.06 1484.77 L1945.06 1480.07 Q1947.15 1481.2 1949.37 1481.76 Q1951.59 1482.32 1954.07 1482.32 Q1958.07 1482.32 1960.41 1480.21 Q1962.75 1478.1 1962.75 1474.49 Q1962.75 1470.88 1960.41 1468.77 Q1958.07 1466.67 1954.07 1466.67 Q1952.19 1466.67 1950.32 1467.08 Q1948.47 1467.5 1946.52 1468.38 L1946.52 1451.02 Z" fill="#000000" fill-rule="nonzero" fill-opacity="1" /><path clip-path="url(#clip560)" d="M1976.64 1479.7 L1981.52 1479.7 L1981.52 1485.58 L1976.64 1485.58 L1976.64 1479.7 Z" fill="#000000" fill-rule="nonzero" fill-opacity="1" /><path clip-path="url(#clip560)" d="M1991.75 1451.02 L2010.11 1451.02 L2010.11 1454.96 L1996.03 1454.96 L1996.03 1463.43 Q1997.05 1463.08 1998.07 1462.92 Q1999.09 1462.73 2000.11 1462.73 Q2005.9 1462.73 2009.28 1465.9 Q2012.66 1469.08 2012.66 1474.49 Q2012.66 1480.07 2009.18 1483.17 Q2005.71 1486.25 1999.39 1486.25 Q1997.22 1486.25 1994.95 1485.88 Q1992.7 1485.51 1990.29 1484.77 L1990.29 1480.07 Q1992.38 1481.2 1994.6 1481.76 Q1996.82 1482.32 1999.3 1482.32 Q2003.3 1482.32 2005.64 1480.21 Q2007.98 1478.1 2007.98 1474.49 Q2007.98 1470.88 2005.64 1468.77 Q2003.3 1466.67 1999.3 1466.67 Q1997.42 1466.67 1995.55 1467.08 Q1993.7 1467.5 1991.75 1468.38 L1991.75 1451.02 Z" fill="#000000" fill-rule="nonzero" fill-opacity="1" /><path clip-path="url(#clip560)" d="M1223.54 1532.4 L1210.65 1549.74 L1224.21 1568.04 L1217.3 1568.04 L1206.93 1554.04 L1196.55 1568.04 L1189.64 1568.04 L1203.49 1549.39 L1190.82 1532.4 L1197.73 1532.4 L1207.18 1545.1 L1216.64 1532.4 L1223.54 1532.4 Z" fill="#000000" fill-rule="nonzero" fill-opacity="1" /><path clip-path="url(#clip560)" d="M1267.27 1518.58 Q1263.01 1525.9 1260.94 1533.06 Q1258.87 1540.23 1258.87 1547.58 Q1258.87 1554.93 1260.94 1562.16 Q1263.04 1569.35 1267.27 1576.64 L1262.18 1576.64 Q1257.41 1569.16 1255.02 1561.93 Q1252.67 1554.71 1252.67 1547.58 Q1252.67 1540.48 1255.02 1533.29 Q1257.38 1526.09 1262.18 1518.58 L1267.27 1518.58 Z" fill="#000000" fill-rule="nonzero" fill-opacity="1" /><path clip-path="url(#clip560)" d="M1306.39 1539.24 Q1308.59 1535.29 1311.64 1533.41 Q1314.7 1531.54 1318.84 1531.54 Q1324.41 1531.54 1327.43 1535.45 Q1330.45 1539.33 1330.45 1546.53 L1330.45 1568.04 L1324.57 1568.04 L1324.57 1546.72 Q1324.57 1541.59 1322.75 1539.11 Q1320.94 1536.63 1317.21 1536.63 Q1312.66 1536.63 1310.02 1539.65 Q1307.38 1542.68 1307.38 1547.9 L1307.38 1568.04 L1301.49 1568.04 L1301.49 1546.72 Q1301.49 1541.56 1299.68 1539.11 Q1297.86 1536.63 1294.07 1536.63 Q1289.59 1536.63 1286.94 1539.68 Q1284.3 1542.71 1284.3 1547.9 L1284.3 1568.04 L1278.41 1568.04 L1278.41 1532.4 L1284.3 1532.4 L1284.3 1537.93 Q1286.31 1534.66 1289.11 1533.1 Q1291.91 1531.54 1295.76 1531.54 Q1299.64 1531.54 1302.35 1533.51 Q1305.09 1535.48 1306.39 1539.24 Z" fill="#000000" fill-rule="nonzero" fill-opacity="1" /><path clip-path="url(#clip560)" d="M1369.89 1539.24 Q1372.09 1535.29 1375.14 1533.41 Q1378.2 1531.54 1382.33 1531.54 Q1387.9 1531.54 1390.93 1535.45 Q1393.95 1539.33 1393.95 1546.53 L1393.95 1568.04 L1388.06 1568.04 L1388.06 1546.72 Q1388.06 1541.59 1386.25 1539.11 Q1384.44 1536.63 1380.71 1536.63 Q1376.16 1536.63 1373.52 1539.65 Q1370.88 1542.68 1370.88 1547.9 L1370.88 1568.04 L1364.99 1568.04 L1364.99 1546.72 Q1364.99 1541.56 1363.17 1539.11 Q1361.36 1536.63 1357.57 1536.63 Q1353.08 1536.63 1350.44 1539.68 Q1347.8 1542.71 1347.8 1547.9 L1347.8 1568.04 L1341.91 1568.04 L1341.91 1532.4 L1347.8 1532.4 L1347.8 1537.93 Q1349.81 1534.66 1352.61 1533.1 Q1355.41 1531.54 1359.26 1531.54 Q1363.14 1531.54 1365.85 1533.51 Q1368.58 1535.48 1369.89 1539.24 Z" fill="#000000" fill-rule="nonzero" fill-opacity="1" /><path clip-path="url(#clip560)" d="M1404.71 1518.58 L1409.8 1518.58 Q1414.58 1526.09 1416.93 1533.29 Q1419.32 1540.48 1419.32 1547.58 Q1419.32 1554.71 1416.93 1561.93 Q1414.58 1569.16 1409.8 1576.64 L1404.71 1576.64 Q1408.94 1569.35 1411.01 1562.16 Q1413.11 1554.93 1413.11 1547.58 Q1413.11 1540.23 1411.01 1533.06 Q1408.94 1525.9 1404.71 1518.58 Z" fill="#000000" fill-rule="nonzero" fill-opacity="1" /><polyline clip-path="url(#clip560)" style="stroke:#000000; stroke-linecap:round; stroke-linejoin:round; stroke-width:4; stroke-opacity:1; fill:none" points="524.658,1423.18 524.658,123.472 "/>
<polyline clip-path="url(#clip560)" style="stroke:#000000; stroke-linecap:round; stroke-linejoin:round; stroke-width:4; stroke-opacity:1; fill:none" points="524.658,1325.09 538.716,1325.09 "/>
<polyline clip-path="url(#clip560)" style="stroke:#000000; stroke-linecap:round; stroke-linejoin:round; stroke-width:4; stroke-opacity:1; fill:none" points="524.658,834.633 538.716,834.633 "/>
<polyline clip-path="url(#clip560)" style="stroke:#000000; stroke-linecap:round; stroke-linejoin:round; stroke-width:4; stroke-opacity:1; fill:none" points="524.658,712.019 538.716,712.019 "/>
<polyline clip-path="url(#clip560)" style="stroke:#000000; stroke-linecap:round; stroke-linejoin:round; stroke-width:4; stroke-opacity:1; fill:none" points="524.658,221.563 538.716,221.563 "/>
<path clip-path="url(#clip560)" d="M382.709 1325.54 L412.385 1325.54 L412.385 1329.48 L382.709 1329.48 L382.709 1325.54 Z" fill="#000000" fill-rule="nonzero" fill-opacity="1" /><path clip-path="url(#clip560)" d="M435.325 1311.88 L423.519 1330.33 L435.325 1330.33 L435.325 1311.88 M434.098 1307.81 L439.977 1307.81 L439.977 1330.33 L444.908 1330.33 L444.908 1334.22 L439.977 1334.22 L439.977 1342.37 L435.325 1342.37 L435.325 1334.22 L419.723 1334.22 L419.723 1329.71 L434.098 1307.81 Z" fill="#000000" fill-rule="nonzero" fill-opacity="1" /><path clip-path="url(#clip560)" d="M452.639 1336.49 L457.524 1336.49 L457.524 1342.37 L452.639 1342.37 L452.639 1336.49 Z" fill="#000000" fill-rule="nonzero" fill-opacity="1" /><path clip-path="url(#clip560)" d="M467.755 1307.81 L486.111 1307.81 L486.111 1311.74 L472.037 1311.74 L472.037 1320.22 Q473.056 1319.87 474.074 1319.71 Q475.093 1319.52 476.111 1319.52 Q481.898 1319.52 485.278 1322.69 Q488.658 1325.86 488.658 1331.28 Q488.658 1336.86 485.185 1339.96 Q481.713 1343.04 475.394 1343.04 Q473.218 1343.04 470.949 1342.67 Q468.704 1342.3 466.297 1341.56 L466.297 1336.86 Q468.38 1337.99 470.602 1338.55 Q472.824 1339.1 475.301 1339.1 Q479.306 1339.1 481.644 1337 Q483.982 1334.89 483.982 1331.28 Q483.982 1327.67 481.644 1325.56 Q479.306 1323.46 475.301 1323.46 Q473.426 1323.46 471.551 1323.87 Q469.699 1324.29 467.755 1325.17 L467.755 1307.81 Z" fill="#000000" fill-rule="nonzero" fill-opacity="1" /><path clip-path="url(#clip560)" d="M382.709 835.084 L412.385 835.084 L412.385 839.02 L382.709 839.02 L382.709 835.084 Z" fill="#000000" fill-rule="nonzero" fill-opacity="1" /><path clip-path="url(#clip560)" d="M432.477 820.432 Q428.866 820.432 427.038 823.996 Q425.232 827.538 425.232 834.668 Q425.232 841.774 427.038 845.339 Q428.866 848.881 432.477 848.881 Q436.112 848.881 437.917 845.339 Q439.746 841.774 439.746 834.668 Q439.746 827.538 437.917 823.996 Q436.112 820.432 432.477 820.432 M432.477 816.728 Q438.288 816.728 441.343 821.334 Q444.422 825.918 444.422 834.668 Q444.422 843.394 441.343 848.001 Q438.288 852.584 432.477 852.584 Q426.667 852.584 423.589 848.001 Q420.533 843.394 420.533 834.668 Q420.533 825.918 423.589 821.334 Q426.667 816.728 432.477 816.728 Z" fill="#000000" fill-rule="nonzero" fill-opacity="1" /><path clip-path="url(#clip560)" d="M452.639 846.033 L457.524 846.033 L457.524 851.913 L452.639 851.913 L452.639 846.033 Z" fill="#000000" fill-rule="nonzero" fill-opacity="1" /><path clip-path="url(#clip560)" d="M467.755 817.353 L486.111 817.353 L486.111 821.288 L472.037 821.288 L472.037 829.76 Q473.056 829.413 474.074 829.251 Q475.093 829.066 476.111 829.066 Q481.898 829.066 485.278 832.237 Q488.658 835.408 488.658 840.825 Q488.658 846.404 485.185 849.506 Q481.713 852.584 475.394 852.584 Q473.218 852.584 470.949 852.214 Q468.704 851.844 466.297 851.103 L466.297 846.404 Q468.38 847.538 470.602 848.094 Q472.824 848.649 475.301 848.649 Q479.306 848.649 481.644 846.543 Q483.982 844.436 483.982 840.825 Q483.982 837.214 481.644 835.107 Q479.306 833.001 475.301 833.001 Q473.426 833.001 471.551 833.418 Q469.699 833.834 467.755 834.714 L467.755 817.353 Z" fill="#000000" fill-rule="nonzero" fill-opacity="1" /><path clip-path="url(#clip560)" d="M432.477 697.818 Q428.866 697.818 427.038 701.382 Q425.232 704.924 425.232 712.054 Q425.232 719.16 427.038 722.725 Q428.866 726.267 432.477 726.267 Q436.112 726.267 437.917 722.725 Q439.746 719.16 439.746 712.054 Q439.746 704.924 437.917 701.382 Q436.112 697.818 432.477 697.818 M432.477 694.114 Q438.288 694.114 441.343 698.72 Q444.422 703.304 444.422 712.054 Q444.422 720.781 441.343 725.387 Q438.288 729.97 432.477 729.97 Q426.667 729.97 423.589 725.387 Q420.533 720.781 420.533 712.054 Q420.533 703.304 423.589 698.72 Q426.667 694.114 432.477 694.114 Z" fill="#000000" fill-rule="nonzero" fill-opacity="1" /><path clip-path="url(#clip560)" d="M452.639 723.419 L457.524 723.419 L457.524 729.299 L452.639 729.299 L452.639 723.419 Z" fill="#000000" fill-rule="nonzero" fill-opacity="1" /><path clip-path="url(#clip560)" d="M467.755 694.739 L486.111 694.739 L486.111 698.674 L472.037 698.674 L472.037 707.146 Q473.056 706.799 474.074 706.637 Q475.093 706.452 476.111 706.452 Q481.898 706.452 485.278 709.623 Q488.658 712.794 488.658 718.211 Q488.658 723.79 485.185 726.892 Q481.713 729.97 475.394 729.97 Q473.218 729.97 470.949 729.6 Q468.704 729.23 466.297 728.489 L466.297 723.79 Q468.38 724.924 470.602 725.48 Q472.824 726.035 475.301 726.035 Q479.306 726.035 481.644 723.929 Q483.982 721.822 483.982 718.211 Q483.982 714.6 481.644 712.494 Q479.306 710.387 475.301 710.387 Q473.426 710.387 471.551 710.804 Q469.699 711.22 467.755 712.1 L467.755 694.739 Z" fill="#000000" fill-rule="nonzero" fill-opacity="1" /><path clip-path="url(#clip560)" d="M435.325 208.357 L423.519 226.806 L435.325 226.806 L435.325 208.357 M434.098 204.283 L439.977 204.283 L439.977 226.806 L444.908 226.806 L444.908 230.695 L439.977 230.695 L439.977 238.843 L435.325 238.843 L435.325 230.695 L419.723 230.695 L419.723 226.181 L434.098 204.283 Z" fill="#000000" fill-rule="nonzero" fill-opacity="1" /><path clip-path="url(#clip560)" d="M452.639 232.964 L457.524 232.964 L457.524 238.843 L452.639 238.843 L452.639 232.964 Z" fill="#000000" fill-rule="nonzero" fill-opacity="1" /><path clip-path="url(#clip560)" d="M467.755 204.283 L486.111 204.283 L486.111 208.218 L472.037 208.218 L472.037 216.691 Q473.056 216.343 474.074 216.181 Q475.093 215.996 476.111 215.996 Q481.898 215.996 485.278 219.167 Q488.658 222.339 488.658 227.755 Q488.658 233.334 485.185 236.436 Q481.713 239.515 475.394 239.515 Q473.218 239.515 470.949 239.144 Q468.704 238.774 466.297 238.033 L466.297 233.334 Q468.38 234.468 470.602 235.024 Q472.824 235.579 475.301 235.579 Q479.306 235.579 481.644 233.473 Q483.982 231.366 483.982 227.755 Q483.982 224.144 481.644 222.038 Q479.306 219.931 475.301 219.931 Q473.426 219.931 471.551 220.348 Q469.699 220.765 467.755 221.644 L467.755 204.283 Z" fill="#000000" fill-rule="nonzero" fill-opacity="1" /><path clip-path="url(#clip560)" d="M335.763 869.098 Q342.129 871.581 344.071 873.936 Q346.012 876.291 346.012 880.238 L346.012 884.917 L341.111 884.917 L341.111 881.479 Q341.111 879.06 339.965 877.724 Q338.819 876.387 334.554 874.764 L331.88 873.713 L296.805 888.132 L296.805 881.925 L324.687 870.785 L296.805 859.645 L296.805 853.438 L335.763 869.098 Z" fill="#000000" fill-rule="nonzero" fill-opacity="1" /><path clip-path="url(#clip560)" d="M282.992 810.565 Q290.312 814.83 297.474 816.899 Q304.635 818.968 311.987 818.968 Q319.34 818.968 326.565 816.899 Q333.758 814.799 341.047 810.565 L341.047 815.658 Q333.567 820.432 326.342 822.819 Q319.117 825.175 311.987 825.175 Q304.89 825.175 297.696 822.819 Q290.503 820.464 282.992 815.658 L282.992 810.565 Z" fill="#000000" fill-rule="nonzero" fill-opacity="1" /><path clip-path="url(#clip560)" d="M303.648 771.448 Q299.702 769.252 297.824 766.196 Q295.946 763.141 295.946 759.003 Q295.946 753.433 299.861 750.409 Q303.744 747.386 310.937 747.386 L332.453 747.386 L332.453 753.274 L311.128 753.274 Q306.004 753.274 303.521 755.088 Q301.038 756.902 301.038 760.626 Q301.038 765.178 304.062 767.82 Q307.086 770.461 312.306 770.461 L332.453 770.461 L332.453 776.35 L311.128 776.35 Q305.972 776.35 303.521 778.164 Q301.038 779.978 301.038 783.766 Q301.038 788.254 304.094 790.895 Q307.118 793.537 312.306 793.537 L332.453 793.537 L332.453 799.425 L296.805 799.425 L296.805 793.537 L302.343 793.537 Q299.065 791.532 297.505 788.731 Q295.946 785.93 295.946 782.079 Q295.946 778.196 297.919 775.49 Q299.893 772.753 303.648 771.448 Z" fill="#000000" fill-rule="nonzero" fill-opacity="1" /><path clip-path="url(#clip560)" d="M303.648 707.95 Q299.702 705.754 297.824 702.698 Q295.946 699.643 295.946 695.505 Q295.946 689.935 299.861 686.912 Q303.744 683.888 310.937 683.888 L332.453 683.888 L332.453 689.776 L311.128 689.776 Q306.004 689.776 303.521 691.59 Q301.038 693.405 301.038 697.128 Q301.038 701.68 304.062 704.322 Q307.086 706.963 312.306 706.963 L332.453 706.963 L332.453 712.852 L311.128 712.852 Q305.972 712.852 303.521 714.666 Q301.038 716.48 301.038 720.268 Q301.038 724.756 304.094 727.397 Q307.118 730.039 312.306 730.039 L332.453 730.039 L332.453 735.927 L296.805 735.927 L296.805 730.039 L302.343 730.039 Q299.065 728.034 297.505 725.233 Q295.946 722.432 295.946 718.581 Q295.946 714.698 297.919 711.992 Q299.893 709.255 303.648 707.95 Z" fill="#000000" fill-rule="nonzero" fill-opacity="1" /><path clip-path="url(#clip560)" d="M282.992 673.13 L282.992 668.037 Q290.503 663.263 297.696 660.908 Q304.89 658.52 311.987 658.52 Q319.117 658.52 326.342 660.908 Q333.567 663.263 341.047 668.037 L341.047 673.13 Q333.758 668.897 326.565 666.828 Q319.34 664.727 311.987 664.727 Q304.635 664.727 297.474 666.828 Q290.312 668.897 282.992 673.13 Z" fill="#000000" fill-rule="nonzero" fill-opacity="1" /><path clip-path="url(#clip560)" d="M905.711 32.4315 Q899.716 32.4315 896.232 37.1306 Q892.748 41.7891 892.748 49.9314 Q892.748 58.0738 896.192 62.7728 Q899.675 67.4314 905.711 67.4314 Q911.666 67.4314 915.15 62.7323 Q918.634 58.0333 918.634 49.9314 Q918.634 41.8701 915.15 37.1711 Q911.666 32.4315 905.711 32.4315 M905.711 26.1121 Q915.433 26.1121 920.983 32.4315 Q926.533 38.7509 926.533 49.9314 Q926.533 61.0714 920.983 67.4314 Q915.433 73.7508 905.711 73.7508 Q895.949 73.7508 890.399 67.4314 Q884.89 61.0714 884.89 49.9314 Q884.89 38.7509 890.399 32.4315 Q895.949 26.1121 905.711 26.1121 Z" fill="#000000" fill-rule="nonzero" fill-opacity="1" /><path clip-path="url(#clip560)" d="M961.857 9.54393 L961.857 15.7418 L954.727 15.7418 Q950.717 15.7418 949.137 17.3622 Q947.598 18.9825 947.598 23.1955 L947.598 27.2059 L959.872 27.2059 L959.872 32.9987 L947.598 32.9987 L947.598 72.576 L940.103 72.576 L940.103 32.9987 L932.974 32.9987 L932.974 27.2059 L940.103 27.2059 L940.103 24.0462 Q940.103 16.471 943.628 13.0277 Q947.152 9.54393 954.808 9.54393 L961.857 9.54393 Z" fill="#000000" fill-rule="nonzero" fill-opacity="1" /><path clip-path="url(#clip560)" d="M991.064 9.54393 L991.064 15.7418 L983.934 15.7418 Q979.924 15.7418 978.344 17.3622 Q976.805 18.9825 976.805 23.1955 L976.805 27.2059 L989.079 27.2059 L989.079 32.9987 L976.805 32.9987 L976.805 72.576 L969.31 72.576 L969.31 32.9987 L962.181 32.9987 L962.181 27.2059 L969.31 27.2059 L969.31 24.0462 Q969.31 16.471 972.835 13.0277 Q976.359 9.54393 984.015 9.54393 L991.064 9.54393 Z" fill="#000000" fill-rule="nonzero" fill-opacity="1" /><path clip-path="url(#clip560)" d="M1026.23 28.5427 L1026.23 35.5912 Q1023.07 33.9709 1019.66 33.1607 Q1016.26 32.3505 1012.61 32.3505 Q1007.06 32.3505 1004.27 34.0519 Q1001.52 35.7533 1001.52 39.156 Q1001.52 41.7486 1003.5 43.2475 Q1005.49 44.7058 1011.48 46.0426 L1014.03 46.6097 Q1021.97 48.3111 1025.29 51.4303 Q1028.66 54.509 1028.66 60.0587 Q1028.66 66.3781 1023.63 70.0644 Q1018.65 73.7508 1009.9 73.7508 Q1006.25 73.7508 1002.28 73.0216 Q998.355 72.3329 993.98 70.9151 L993.98 63.2184 Q998.112 65.3654 1002.12 66.4591 Q1006.13 67.5124 1010.06 67.5124 Q1015.33 67.5124 1018.16 65.73 Q1021 63.9071 1021 60.6258 Q1021 57.5877 1018.93 55.9673 Q1016.91 54.3469 1009.98 52.8481 L1007.39 52.2405 Q1000.46 50.7821 997.383 47.7845 Q994.305 44.7463 994.305 39.4801 Q994.305 33.0797 998.842 29.5959 Q1003.38 26.1121 1011.72 26.1121 Q1015.86 26.1121 1019.5 26.7198 Q1023.15 27.3274 1026.23 28.5427 Z" fill="#000000" fill-rule="nonzero" fill-opacity="1" /><path clip-path="url(#clip560)" d="M1079.33 48.0275 L1079.33 51.6733 L1045.06 51.6733 Q1045.55 59.3701 1049.68 63.421 Q1053.85 67.4314 1061.27 67.4314 Q1065.56 67.4314 1069.57 66.3781 Q1073.62 65.3249 1077.59 63.2184 L1077.59 70.267 Q1073.58 71.9684 1069.37 72.8596 Q1065.15 73.7508 1060.82 73.7508 Q1049.96 73.7508 1043.6 67.4314 Q1037.28 61.1119 1037.28 50.3365 Q1037.28 39.1965 1043.28 32.6746 Q1049.32 26.1121 1059.52 26.1121 Q1068.68 26.1121 1073.99 32.0264 Q1079.33 37.9003 1079.33 48.0275 M1071.88 45.84 Q1071.8 39.7232 1068.44 36.0774 Q1065.11 32.4315 1059.61 32.4315 Q1053.37 32.4315 1049.6 35.9558 Q1045.87 39.4801 1045.31 45.8805 L1071.88 45.84 Z" fill="#000000" fill-rule="nonzero" fill-opacity="1" /><path clip-path="url(#clip560)" d="M1098.94 14.324 L1098.94 27.2059 L1114.29 27.2059 L1114.29 32.9987 L1098.94 32.9987 L1098.94 57.6282 Q1098.94 63.1779 1100.44 64.7578 Q1101.98 66.3376 1106.64 66.3376 L1114.29 66.3376 L1114.29 72.576 L1106.64 72.576 Q1098.01 72.576 1094.73 69.3758 Q1091.45 66.1351 1091.45 57.6282 L1091.45 32.9987 L1085.98 32.9987 L1085.98 27.2059 L1091.45 27.2059 L1091.45 14.324 L1098.94 14.324 Z" fill="#000000" fill-rule="nonzero" fill-opacity="1" /><path clip-path="url(#clip560)" d="M1153.02 28.5427 L1153.02 35.5912 Q1149.86 33.9709 1146.46 33.1607 Q1143.05 32.3505 1139.41 32.3505 Q1133.86 32.3505 1131.06 34.0519 Q1128.31 35.7533 1128.31 39.156 Q1128.31 41.7486 1130.29 43.2475 Q1132.28 44.7058 1138.27 46.0426 L1140.83 46.6097 Q1148.77 48.3111 1152.09 51.4303 Q1155.45 54.509 1155.45 60.0587 Q1155.45 66.3781 1150.43 70.0644 Q1145.44 73.7508 1136.69 73.7508 Q1133.05 73.7508 1129.08 73.0216 Q1125.15 72.3329 1120.77 70.9151 L1120.77 63.2184 Q1124.91 65.3654 1128.92 66.4591 Q1132.93 67.5124 1136.86 67.5124 Q1142.12 67.5124 1144.96 65.73 Q1147.79 63.9071 1147.79 60.6258 Q1147.79 57.5877 1145.73 55.9673 Q1143.7 54.3469 1136.77 52.8481 L1134.18 52.2405 Q1127.26 50.7821 1124.18 47.7845 Q1121.1 44.7463 1121.1 39.4801 Q1121.1 33.0797 1125.63 29.5959 Q1130.17 26.1121 1138.52 26.1121 Q1142.65 26.1121 1146.29 26.7198 Q1149.94 27.3274 1153.02 28.5427 Z" fill="#000000" fill-rule="nonzero" fill-opacity="1" /><path clip-path="url(#clip560)" d="M1211.6 9.62495 Q1206.17 18.942 1203.53 28.0566 Q1200.9 37.1711 1200.9 46.5287 Q1200.9 55.8863 1203.53 65.0818 Q1206.21 74.2369 1211.6 83.5134 L1205.11 83.5134 Q1199.04 73.9938 1196 64.7983 Q1193 55.6027 1193 46.5287 Q1193 37.4952 1196 28.3401 Q1199 19.1851 1205.11 9.62495 L1211.6 9.62495 Z" fill="#000000" fill-rule="nonzero" fill-opacity="1" /><path clip-path="url(#clip560)" d="M1244.61 17.4837 Q1238.29 17.4837 1235.09 23.7221 Q1231.93 29.92 1231.93 42.3968 Q1231.93 54.833 1235.09 61.0714 Q1238.29 67.2693 1244.61 67.2693 Q1250.97 67.2693 1254.13 61.0714 Q1257.33 54.833 1257.33 42.3968 Q1257.33 29.92 1254.13 23.7221 Q1250.97 17.4837 1244.61 17.4837 M1244.61 11.0023 Q1254.78 11.0023 1260.12 19.0636 Q1265.51 27.0843 1265.51 42.3968 Q1265.51 57.6687 1260.12 65.73 Q1254.78 73.7508 1244.61 73.7508 Q1234.44 73.7508 1229.05 65.73 Q1223.71 57.6687 1223.71 42.3968 Q1223.71 27.0843 1229.05 19.0636 Q1234.44 11.0023 1244.61 11.0023 Z" fill="#000000" fill-rule="nonzero" fill-opacity="1" /><path clip-path="url(#clip560)" d="M1279.89 62.2867 L1288.44 62.2867 L1288.44 72.576 L1279.89 72.576 L1279.89 62.2867 Z" fill="#000000" fill-rule="nonzero" fill-opacity="1" /><path clip-path="url(#clip560)" d="M1323.76 17.4837 Q1317.45 17.4837 1314.24 23.7221 Q1311.09 29.92 1311.09 42.3968 Q1311.09 54.833 1314.24 61.0714 Q1317.45 67.2693 1323.76 67.2693 Q1330.12 67.2693 1333.28 61.0714 Q1336.48 54.833 1336.48 42.3968 Q1336.48 29.92 1333.28 23.7221 Q1330.12 17.4837 1323.76 17.4837 M1323.76 11.0023 Q1333.93 11.0023 1339.28 19.0636 Q1344.67 27.0843 1344.67 42.3968 Q1344.67 57.6687 1339.28 65.73 Q1333.93 73.7508 1323.76 73.7508 Q1313.6 73.7508 1308.21 65.73 Q1302.86 57.6687 1302.86 42.3968 Q1302.86 27.0843 1308.21 19.0636 Q1313.6 11.0023 1323.76 11.0023 Z" fill="#000000" fill-rule="nonzero" fill-opacity="1" /><path clip-path="url(#clip560)" d="M1380.96 9.54393 L1380.96 15.7418 L1373.83 15.7418 Q1369.82 15.7418 1368.24 17.3622 Q1366.7 18.9825 1366.7 23.1955 L1366.7 27.2059 L1378.98 27.2059 L1378.98 32.9987 L1366.7 32.9987 L1366.7 72.576 L1359.21 72.576 L1359.21 32.9987 L1352.08 32.9987 L1352.08 27.2059 L1359.21 27.2059 L1359.21 24.0462 Q1359.21 16.471 1362.73 13.0277 Q1366.26 9.54393 1373.91 9.54393 L1380.96 9.54393 Z" fill="#000000" fill-rule="nonzero" fill-opacity="1" /><path clip-path="url(#clip560)" d="M1405.75 17.4837 Q1399.44 17.4837 1396.24 23.7221 Q1393.08 29.92 1393.08 42.3968 Q1393.08 54.833 1396.24 61.0714 Q1399.44 67.2693 1405.75 67.2693 Q1412.11 67.2693 1415.27 61.0714 Q1418.47 54.833 1418.47 42.3968 Q1418.47 29.92 1415.27 23.7221 Q1412.11 17.4837 1405.75 17.4837 M1405.75 11.0023 Q1415.92 11.0023 1421.27 19.0636 Q1426.66 27.0843 1426.66 42.3968 Q1426.66 57.6687 1421.27 65.73 Q1415.92 73.7508 1405.75 73.7508 Q1395.59 73.7508 1390.2 65.73 Q1384.85 57.6687 1384.85 42.3968 Q1384.85 27.0843 1390.2 19.0636 Q1395.59 11.0023 1405.75 11.0023 Z" fill="#000000" fill-rule="nonzero" fill-opacity="1" /><path clip-path="url(#clip560)" d="M1441.89 62.2867 L1450.44 62.2867 L1450.44 69.2543 L1443.79 82.2172 L1438.57 82.2172 L1441.89 69.2543 L1441.89 62.2867 Z" fill="#000000" fill-rule="nonzero" fill-opacity="1" /><path clip-path="url(#clip560)" d="M1511.28 17.4837 Q1504.96 17.4837 1501.76 23.7221 Q1498.6 29.92 1498.6 42.3968 Q1498.6 54.833 1501.76 61.0714 Q1504.96 67.2693 1511.28 67.2693 Q1517.64 67.2693 1520.8 61.0714 Q1524 54.833 1524 42.3968 Q1524 29.92 1520.8 23.7221 Q1517.64 17.4837 1511.28 17.4837 M1511.28 11.0023 Q1521.45 11.0023 1526.8 19.0636 Q1532.18 27.0843 1532.18 42.3968 Q1532.18 57.6687 1526.8 65.73 Q1521.45 73.7508 1511.28 73.7508 Q1501.11 73.7508 1495.73 65.73 Q1490.38 57.6687 1490.38 42.3968 Q1490.38 27.0843 1495.73 19.0636 Q1501.11 11.0023 1511.28 11.0023 Z" fill="#000000" fill-rule="nonzero" fill-opacity="1" /><path clip-path="url(#clip560)" d="M1546.56 62.2867 L1555.11 62.2867 L1555.11 72.576 L1546.56 72.576 L1546.56 62.2867 Z" fill="#000000" fill-rule="nonzero" fill-opacity="1" /><path clip-path="url(#clip560)" d="M1590.44 17.4837 Q1584.12 17.4837 1580.92 23.7221 Q1577.76 29.92 1577.76 42.3968 Q1577.76 54.833 1580.92 61.0714 Q1584.12 67.2693 1590.44 67.2693 Q1596.8 67.2693 1599.96 61.0714 Q1603.16 54.833 1603.16 42.3968 Q1603.16 29.92 1599.96 23.7221 Q1596.8 17.4837 1590.44 17.4837 M1590.44 11.0023 Q1600.6 11.0023 1605.95 19.0636 Q1611.34 27.0843 1611.34 42.3968 Q1611.34 57.6687 1605.95 65.73 Q1600.6 73.7508 1590.44 73.7508 Q1580.27 73.7508 1574.88 65.73 Q1569.53 57.6687 1569.53 42.3968 Q1569.53 27.0843 1574.88 19.0636 Q1580.27 11.0023 1590.44 11.0023 Z" fill="#000000" fill-rule="nonzero" fill-opacity="1" /><path clip-path="url(#clip560)" d="M1647.63 9.54393 L1647.63 15.7418 L1640.5 15.7418 Q1636.49 15.7418 1634.91 17.3622 Q1633.38 18.9825 1633.38 23.1955 L1633.38 27.2059 L1645.65 27.2059 L1645.65 32.9987 L1633.38 32.9987 L1633.38 72.576 L1625.88 72.576 L1625.88 32.9987 L1618.75 32.9987 L1618.75 27.2059 L1625.88 27.2059 L1625.88 24.0462 Q1625.88 16.471 1629.41 13.0277 Q1632.93 9.54393 1640.59 9.54393 L1647.63 9.54393 Z" fill="#000000" fill-rule="nonzero" fill-opacity="1" /><path clip-path="url(#clip560)" d="M1672.43 17.4837 Q1666.11 17.4837 1662.91 23.7221 Q1659.75 29.92 1659.75 42.3968 Q1659.75 54.833 1662.91 61.0714 Q1666.11 67.2693 1672.43 67.2693 Q1678.79 67.2693 1681.95 61.0714 Q1685.15 54.833 1685.15 42.3968 Q1685.15 29.92 1681.95 23.7221 Q1678.79 17.4837 1672.43 17.4837 M1672.43 11.0023 Q1682.59 11.0023 1687.94 19.0636 Q1693.33 27.0843 1693.33 42.3968 Q1693.33 57.6687 1687.94 65.73 Q1682.59 73.7508 1672.43 73.7508 Q1662.26 73.7508 1656.87 65.73 Q1651.52 57.6687 1651.52 42.3968 Q1651.52 27.0843 1656.87 19.0636 Q1662.26 11.0023 1672.43 11.0023 Z" fill="#000000" fill-rule="nonzero" fill-opacity="1" /><path clip-path="url(#clip560)" d="M1705.48 9.62495 L1711.96 9.62495 Q1718.04 19.1851 1721.04 28.3401 Q1724.07 37.4952 1724.07 46.5287 Q1724.07 55.6027 1721.04 64.7983 Q1718.04 73.9938 1711.96 83.5134 L1705.48 83.5134 Q1710.87 74.2369 1713.5 65.0818 Q1716.18 55.8863 1716.18 46.5287 Q1716.18 37.1711 1713.5 28.0566 Q1710.87 18.942 1705.48 9.62495 Z" fill="#000000" fill-rule="nonzero" fill-opacity="1" /><circle clip-path="url(#clip561)" cx="630.106" cy="1325.09" r="14.4" fill="#009af9" fill-rule="evenodd" fill-opacity="1" stroke="none"/>
<circle clip-path="url(#clip561)" cx="752.72" cy="1325.09" r="14.4" fill="#009af9" fill-rule="evenodd" fill-opacity="1" stroke="none"/>
<circle clip-path="url(#clip561)" cx="875.334" cy="1325.09" r="14.4" fill="#009af9" fill-rule="evenodd" fill-opacity="1" stroke="none"/>
<circle clip-path="url(#clip561)" cx="997.947" cy="1325.09" r="14.4" fill="#009af9" fill-rule="evenodd" fill-opacity="1" stroke="none"/>
<circle clip-path="url(#clip561)" cx="1120.56" cy="1325.09" r="14.4" fill="#009af9" fill-rule="evenodd" fill-opacity="1" stroke="none"/>
<circle clip-path="url(#clip561)" cx="1243.18" cy="1325.09" r="14.4" fill="#009af9" fill-rule="evenodd" fill-opacity="1" stroke="none"/>
<circle clip-path="url(#clip561)" cx="1365.79" cy="1325.09" r="14.4" fill="#009af9" fill-rule="evenodd" fill-opacity="1" stroke="none"/>
<circle clip-path="url(#clip561)" cx="1488.4" cy="1325.09" r="14.4" fill="#009af9" fill-rule="evenodd" fill-opacity="1" stroke="none"/>
<circle clip-path="url(#clip561)" cx="1611.02" cy="1325.09" r="14.4" fill="#009af9" fill-rule="evenodd" fill-opacity="1" stroke="none"/>
<circle clip-path="url(#clip561)" cx="1733.63" cy="1325.09" r="14.4" fill="#009af9" fill-rule="evenodd" fill-opacity="1" stroke="none"/>
<circle clip-path="url(#clip561)" cx="1856.24" cy="1325.09" r="14.4" fill="#009af9" fill-rule="evenodd" fill-opacity="1" stroke="none"/>
<circle clip-path="url(#clip561)" cx="1978.86" cy="1325.09" r="14.4" fill="#009af9" fill-rule="evenodd" fill-opacity="1" stroke="none"/>
<circle clip-path="url(#clip561)" cx="630.106" cy="1202.47" r="14.4" fill="#e26f46" fill-rule="evenodd" fill-opacity="1" stroke="none"/>
<circle clip-path="url(#clip561)" cx="752.72" cy="1202.47" r="14.4" fill="#e26f46" fill-rule="evenodd" fill-opacity="1" stroke="none"/>
<circle clip-path="url(#clip561)" cx="875.334" cy="1202.47" r="14.4" fill="#e26f46" fill-rule="evenodd" fill-opacity="1" stroke="none"/>
<circle clip-path="url(#clip561)" cx="997.947" cy="1202.47" r="14.4" fill="#e26f46" fill-rule="evenodd" fill-opacity="1" stroke="none"/>
<circle clip-path="url(#clip561)" cx="1120.56" cy="1202.47" r="14.4" fill="#e26f46" fill-rule="evenodd" fill-opacity="1" stroke="none"/>
<circle clip-path="url(#clip561)" cx="1243.18" cy="1202.47" r="14.4" fill="#e26f46" fill-rule="evenodd" fill-opacity="1" stroke="none"/>
<circle clip-path="url(#clip561)" cx="1365.79" cy="1202.47" r="14.4" fill="#e26f46" fill-rule="evenodd" fill-opacity="1" stroke="none"/>
<circle clip-path="url(#clip561)" cx="1488.4" cy="1202.47" r="14.4" fill="#e26f46" fill-rule="evenodd" fill-opacity="1" stroke="none"/>
<circle clip-path="url(#clip561)" cx="1611.02" cy="1202.47" r="14.4" fill="#e26f46" fill-rule="evenodd" fill-opacity="1" stroke="none"/>
<circle clip-path="url(#clip561)" cx="1733.63" cy="1202.47" r="14.4" fill="#e26f46" fill-rule="evenodd" fill-opacity="1" stroke="none"/>
<circle clip-path="url(#clip561)" cx="1856.24" cy="1202.47" r="14.4" fill="#e26f46" fill-rule="evenodd" fill-opacity="1" stroke="none"/>
<circle clip-path="url(#clip561)" cx="1978.86" cy="1202.47" r="14.4" fill="#e26f46" fill-rule="evenodd" fill-opacity="1" stroke="none"/>
<circle clip-path="url(#clip561)" cx="630.106" cy="1079.86" r="14.4" fill="#3da44d" fill-rule="evenodd" fill-opacity="1" stroke="none"/>
<circle clip-path="url(#clip561)" cx="752.72" cy="1079.86" r="14.4" fill="#3da44d" fill-rule="evenodd" fill-opacity="1" stroke="none"/>
<circle clip-path="url(#clip561)" cx="875.334" cy="1079.86" r="14.4" fill="#3da44d" fill-rule="evenodd" fill-opacity="1" stroke="none"/>
<circle clip-path="url(#clip561)" cx="997.947" cy="1079.86" r="14.4" fill="#3da44d" fill-rule="evenodd" fill-opacity="1" stroke="none"/>
<circle clip-path="url(#clip561)" cx="1120.56" cy="1079.86" r="14.4" fill="#3da44d" fill-rule="evenodd" fill-opacity="1" stroke="none"/>
<circle clip-path="url(#clip561)" cx="1243.18" cy="1079.86" r="14.4" fill="#3da44d" fill-rule="evenodd" fill-opacity="1" stroke="none"/>
<circle clip-path="url(#clip561)" cx="1365.79" cy="1079.86" r="14.4" fill="#3da44d" fill-rule="evenodd" fill-opacity="1" stroke="none"/>
<circle clip-path="url(#clip561)" cx="1488.4" cy="1079.86" r="14.4" fill="#3da44d" fill-rule="evenodd" fill-opacity="1" stroke="none"/>
<circle clip-path="url(#clip561)" cx="1611.02" cy="1079.86" r="14.4" fill="#3da44d" fill-rule="evenodd" fill-opacity="1" stroke="none"/>
<circle clip-path="url(#clip561)" cx="1733.63" cy="1079.86" r="14.4" fill="#3da44d" fill-rule="evenodd" fill-opacity="1" stroke="none"/>
<circle clip-path="url(#clip561)" cx="1856.24" cy="1079.86" r="14.4" fill="#3da44d" fill-rule="evenodd" fill-opacity="1" stroke="none"/>
<circle clip-path="url(#clip561)" cx="1978.86" cy="1079.86" r="14.4" fill="#3da44d" fill-rule="evenodd" fill-opacity="1" stroke="none"/>
<circle clip-path="url(#clip561)" cx="630.106" cy="957.247" r="14.4" fill="#c271d2" fill-rule="evenodd" fill-opacity="1" stroke="none"/>
<circle clip-path="url(#clip561)" cx="752.72" cy="957.247" r="14.4" fill="#c271d2" fill-rule="evenodd" fill-opacity="1" stroke="none"/>
<circle clip-path="url(#clip561)" cx="875.334" cy="957.247" r="14.4" fill="#c271d2" fill-rule="evenodd" fill-opacity="1" stroke="none"/>
<circle clip-path="url(#clip561)" cx="997.947" cy="957.247" r="14.4" fill="#c271d2" fill-rule="evenodd" fill-opacity="1" stroke="none"/>
<circle clip-path="url(#clip561)" cx="1120.56" cy="957.247" r="14.4" fill="#c271d2" fill-rule="evenodd" fill-opacity="1" stroke="none"/>
<circle clip-path="url(#clip561)" cx="1243.18" cy="957.247" r="14.4" fill="#c271d2" fill-rule="evenodd" fill-opacity="1" stroke="none"/>
<circle clip-path="url(#clip561)" cx="1365.79" cy="957.247" r="14.4" fill="#c271d2" fill-rule="evenodd" fill-opacity="1" stroke="none"/>
<circle clip-path="url(#clip561)" cx="1488.4" cy="957.247" r="14.4" fill="#c271d2" fill-rule="evenodd" fill-opacity="1" stroke="none"/>
<circle clip-path="url(#clip561)" cx="1611.02" cy="957.247" r="14.4" fill="#c271d2" fill-rule="evenodd" fill-opacity="1" stroke="none"/>
<circle clip-path="url(#clip561)" cx="1733.63" cy="957.247" r="14.4" fill="#c271d2" fill-rule="evenodd" fill-opacity="1" stroke="none"/>
<circle clip-path="url(#clip561)" cx="1856.24" cy="957.247" r="14.4" fill="#c271d2" fill-rule="evenodd" fill-opacity="1" stroke="none"/>
<circle clip-path="url(#clip561)" cx="1978.86" cy="957.247" r="14.4" fill="#c271d2" fill-rule="evenodd" fill-opacity="1" stroke="none"/>
<circle clip-path="url(#clip561)" cx="630.106" cy="834.633" r="14.4" fill="#ac8d18" fill-rule="evenodd" fill-opacity="1" stroke="none"/>
<circle clip-path="url(#clip561)" cx="752.72" cy="834.633" r="14.4" fill="#ac8d18" fill-rule="evenodd" fill-opacity="1" stroke="none"/>
<circle clip-path="url(#clip561)" cx="875.334" cy="834.633" r="14.4" fill="#ac8d18" fill-rule="evenodd" fill-opacity="1" stroke="none"/>
<circle clip-path="url(#clip561)" cx="997.947" cy="834.633" r="14.4" fill="#ac8d18" fill-rule="evenodd" fill-opacity="1" stroke="none"/>
<circle clip-path="url(#clip561)" cx="1120.56" cy="834.633" r="14.4" fill="#ac8d18" fill-rule="evenodd" fill-opacity="1" stroke="none"/>
<circle clip-path="url(#clip561)" cx="1243.18" cy="834.633" r="14.4" fill="#ac8d18" fill-rule="evenodd" fill-opacity="1" stroke="none"/>
<circle clip-path="url(#clip561)" cx="1365.79" cy="834.633" r="14.4" fill="#ac8d18" fill-rule="evenodd" fill-opacity="1" stroke="none"/>
<circle clip-path="url(#clip561)" cx="1488.4" cy="834.633" r="14.4" fill="#ac8d18" fill-rule="evenodd" fill-opacity="1" stroke="none"/>
<circle clip-path="url(#clip561)" cx="1611.02" cy="834.633" r="14.4" fill="#ac8d18" fill-rule="evenodd" fill-opacity="1" stroke="none"/>
<circle clip-path="url(#clip561)" cx="1733.63" cy="834.633" r="14.4" fill="#ac8d18" fill-rule="evenodd" fill-opacity="1" stroke="none"/>
<circle clip-path="url(#clip561)" cx="1856.24" cy="834.633" r="14.4" fill="#ac8d18" fill-rule="evenodd" fill-opacity="1" stroke="none"/>
<circle clip-path="url(#clip561)" cx="1978.86" cy="834.633" r="14.4" fill="#ac8d18" fill-rule="evenodd" fill-opacity="1" stroke="none"/>
<circle clip-path="url(#clip561)" cx="630.106" cy="712.019" r="14.4" fill="#00a9ad" fill-rule="evenodd" fill-opacity="1" stroke="none"/>
<circle clip-path="url(#clip561)" cx="752.72" cy="712.019" r="14.4" fill="#00a9ad" fill-rule="evenodd" fill-opacity="1" stroke="none"/>
<circle clip-path="url(#clip561)" cx="875.334" cy="712.019" r="14.4" fill="#00a9ad" fill-rule="evenodd" fill-opacity="1" stroke="none"/>
<circle clip-path="url(#clip561)" cx="997.947" cy="712.019" r="14.4" fill="#00a9ad" fill-rule="evenodd" fill-opacity="1" stroke="none"/>
<circle clip-path="url(#clip561)" cx="1120.56" cy="712.019" r="14.4" fill="#00a9ad" fill-rule="evenodd" fill-opacity="1" stroke="none"/>
<circle clip-path="url(#clip561)" cx="1243.18" cy="712.019" r="14.4" fill="#00a9ad" fill-rule="evenodd" fill-opacity="1" stroke="none"/>
<circle clip-path="url(#clip561)" cx="1365.79" cy="712.019" r="14.4" fill="#00a9ad" fill-rule="evenodd" fill-opacity="1" stroke="none"/>
<circle clip-path="url(#clip561)" cx="1488.4" cy="712.019" r="14.4" fill="#00a9ad" fill-rule="evenodd" fill-opacity="1" stroke="none"/>
<circle clip-path="url(#clip561)" cx="1611.02" cy="712.019" r="14.4" fill="#00a9ad" fill-rule="evenodd" fill-opacity="1" stroke="none"/>
<circle clip-path="url(#clip561)" cx="1733.63" cy="712.019" r="14.4" fill="#00a9ad" fill-rule="evenodd" fill-opacity="1" stroke="none"/>
<circle clip-path="url(#clip561)" cx="1856.24" cy="712.019" r="14.4" fill="#00a9ad" fill-rule="evenodd" fill-opacity="1" stroke="none"/>
<circle clip-path="url(#clip561)" cx="1978.86" cy="712.019" r="14.4" fill="#00a9ad" fill-rule="evenodd" fill-opacity="1" stroke="none"/>
<circle clip-path="url(#clip561)" cx="630.106" cy="589.405" r="14.4" fill="#ed5d92" fill-rule="evenodd" fill-opacity="1" stroke="none"/>
<circle clip-path="url(#clip561)" cx="752.72" cy="589.405" r="14.4" fill="#ed5d92" fill-rule="evenodd" fill-opacity="1" stroke="none"/>
<circle clip-path="url(#clip561)" cx="875.334" cy="589.405" r="14.4" fill="#ed5d92" fill-rule="evenodd" fill-opacity="1" stroke="none"/>
<circle clip-path="url(#clip561)" cx="997.947" cy="589.405" r="14.4" fill="#ed5d92" fill-rule="evenodd" fill-opacity="1" stroke="none"/>
<circle clip-path="url(#clip561)" cx="1120.56" cy="589.405" r="14.4" fill="#ed5d92" fill-rule="evenodd" fill-opacity="1" stroke="none"/>
<circle clip-path="url(#clip561)" cx="1243.18" cy="589.405" r="14.4" fill="#ed5d92" fill-rule="evenodd" fill-opacity="1" stroke="none"/>
<circle clip-path="url(#clip561)" cx="1365.79" cy="589.405" r="14.4" fill="#ed5d92" fill-rule="evenodd" fill-opacity="1" stroke="none"/>
<circle clip-path="url(#clip561)" cx="1488.4" cy="589.405" r="14.4" fill="#ed5d92" fill-rule="evenodd" fill-opacity="1" stroke="none"/>
<circle clip-path="url(#clip561)" cx="1611.02" cy="589.405" r="14.4" fill="#ed5d92" fill-rule="evenodd" fill-opacity="1" stroke="none"/>
<circle clip-path="url(#clip561)" cx="1733.63" cy="589.405" r="14.4" fill="#ed5d92" fill-rule="evenodd" fill-opacity="1" stroke="none"/>
<circle clip-path="url(#clip561)" cx="1856.24" cy="589.405" r="14.4" fill="#ed5d92" fill-rule="evenodd" fill-opacity="1" stroke="none"/>
<circle clip-path="url(#clip561)" cx="1978.86" cy="589.405" r="14.4" fill="#ed5d92" fill-rule="evenodd" fill-opacity="1" stroke="none"/>
<circle clip-path="url(#clip561)" cx="630.106" cy="466.791" r="14.4" fill="#c68125" fill-rule="evenodd" fill-opacity="1" stroke="none"/>
<circle clip-path="url(#clip561)" cx="752.72" cy="466.791" r="14.4" fill="#c68125" fill-rule="evenodd" fill-opacity="1" stroke="none"/>
<circle clip-path="url(#clip561)" cx="875.334" cy="466.791" r="14.4" fill="#c68125" fill-rule="evenodd" fill-opacity="1" stroke="none"/>
<circle clip-path="url(#clip561)" cx="997.947" cy="466.791" r="14.4" fill="#c68125" fill-rule="evenodd" fill-opacity="1" stroke="none"/>
<circle clip-path="url(#clip561)" cx="1120.56" cy="466.791" r="14.4" fill="#c68125" fill-rule="evenodd" fill-opacity="1" stroke="none"/>
<circle clip-path="url(#clip561)" cx="1243.18" cy="466.791" r="14.4" fill="#c68125" fill-rule="evenodd" fill-opacity="1" stroke="none"/>
<circle clip-path="url(#clip561)" cx="1365.79" cy="466.791" r="14.4" fill="#c68125" fill-rule="evenodd" fill-opacity="1" stroke="none"/>
<circle clip-path="url(#clip561)" cx="1488.4" cy="466.791" r="14.4" fill="#c68125" fill-rule="evenodd" fill-opacity="1" stroke="none"/>
<circle clip-path="url(#clip561)" cx="1611.02" cy="466.791" r="14.4" fill="#c68125" fill-rule="evenodd" fill-opacity="1" stroke="none"/>
<circle clip-path="url(#clip561)" cx="1733.63" cy="466.791" r="14.4" fill="#c68125" fill-rule="evenodd" fill-opacity="1" stroke="none"/>
<circle clip-path="url(#clip561)" cx="1856.24" cy="466.791" r="14.4" fill="#c68125" fill-rule="evenodd" fill-opacity="1" stroke="none"/>
<circle clip-path="url(#clip561)" cx="1978.86" cy="466.791" r="14.4" fill="#c68125" fill-rule="evenodd" fill-opacity="1" stroke="none"/>
<circle clip-path="url(#clip561)" cx="630.106" cy="344.177" r="14.4" fill="#00a98d" fill-rule="evenodd" fill-opacity="1" stroke="none"/>
<circle clip-path="url(#clip561)" cx="752.72" cy="344.177" r="14.4" fill="#00a98d" fill-rule="evenodd" fill-opacity="1" stroke="none"/>
<circle clip-path="url(#clip561)" cx="875.334" cy="344.177" r="14.4" fill="#00a98d" fill-rule="evenodd" fill-opacity="1" stroke="none"/>
<circle clip-path="url(#clip561)" cx="997.947" cy="344.177" r="14.4" fill="#00a98d" fill-rule="evenodd" fill-opacity="1" stroke="none"/>
<circle clip-path="url(#clip561)" cx="1120.56" cy="344.177" r="14.4" fill="#00a98d" fill-rule="evenodd" fill-opacity="1" stroke="none"/>
<circle clip-path="url(#clip561)" cx="1243.18" cy="344.177" r="14.4" fill="#00a98d" fill-rule="evenodd" fill-opacity="1" stroke="none"/>
<circle clip-path="url(#clip561)" cx="1365.79" cy="344.177" r="14.4" fill="#00a98d" fill-rule="evenodd" fill-opacity="1" stroke="none"/>
<circle clip-path="url(#clip561)" cx="1488.4" cy="344.177" r="14.4" fill="#00a98d" fill-rule="evenodd" fill-opacity="1" stroke="none"/>
<circle clip-path="url(#clip561)" cx="1611.02" cy="344.177" r="14.4" fill="#00a98d" fill-rule="evenodd" fill-opacity="1" stroke="none"/>
<circle clip-path="url(#clip561)" cx="1733.63" cy="344.177" r="14.4" fill="#00a98d" fill-rule="evenodd" fill-opacity="1" stroke="none"/>
<circle clip-path="url(#clip561)" cx="1856.24" cy="344.177" r="14.4" fill="#00a98d" fill-rule="evenodd" fill-opacity="1" stroke="none"/>
<circle clip-path="url(#clip561)" cx="1978.86" cy="344.177" r="14.4" fill="#00a98d" fill-rule="evenodd" fill-opacity="1" stroke="none"/>
<circle clip-path="url(#clip561)" cx="630.106" cy="221.563" r="14.4" fill="#8e971d" fill-rule="evenodd" fill-opacity="1" stroke="none"/>
<circle clip-path="url(#clip561)" cx="752.72" cy="221.563" r="14.4" fill="#8e971d" fill-rule="evenodd" fill-opacity="1" stroke="none"/>
<circle clip-path="url(#clip561)" cx="875.334" cy="221.563" r="14.4" fill="#8e971d" fill-rule="evenodd" fill-opacity="1" stroke="none"/>
<circle clip-path="url(#clip561)" cx="997.947" cy="221.563" r="14.4" fill="#8e971d" fill-rule="evenodd" fill-opacity="1" stroke="none"/>
<circle clip-path="url(#clip561)" cx="1120.56" cy="221.563" r="14.4" fill="#8e971d" fill-rule="evenodd" fill-opacity="1" stroke="none"/>
<circle clip-path="url(#clip561)" cx="1243.18" cy="221.563" r="14.4" fill="#8e971d" fill-rule="evenodd" fill-opacity="1" stroke="none"/>
<circle clip-path="url(#clip561)" cx="1365.79" cy="221.563" r="14.4" fill="#8e971d" fill-rule="evenodd" fill-opacity="1" stroke="none"/>
<circle clip-path="url(#clip561)" cx="1488.4" cy="221.563" r="14.4" fill="#8e971d" fill-rule="evenodd" fill-opacity="1" stroke="none"/>
<circle clip-path="url(#clip561)" cx="1611.02" cy="221.563" r="14.4" fill="#8e971d" fill-rule="evenodd" fill-opacity="1" stroke="none"/>
<circle clip-path="url(#clip561)" cx="1733.63" cy="221.563" r="14.4" fill="#8e971d" fill-rule="evenodd" fill-opacity="1" stroke="none"/>
<circle clip-path="url(#clip561)" cx="1856.24" cy="221.563" r="14.4" fill="#8e971d" fill-rule="evenodd" fill-opacity="1" stroke="none"/>
<circle clip-path="url(#clip561)" cx="1978.86" cy="221.563" r="14.4" fill="#8e971d" fill-rule="evenodd" fill-opacity="1" stroke="none"/>
</svg>
