<?xml version="1.0" encoding="utf-8"?>
<svg xmlns="http://www.w3.org/2000/svg" xmlns:xlink="http://www.w3.org/1999/xlink" width="600" height="400" viewBox="0 0 2400 1600">
<defs>
  <clipPath id="clip530">
    <rect x="0" y="0" width="2400" height="1600"/>
  </clipPath>
</defs>
<path clip-path="url(#clip530)" d="M0 1600 L2400 1600 L2400 0 L0 0  Z" fill="#ffffff" fill-rule="evenodd" fill-opacity="1"/>
<defs>
  <clipPath id="clip531">
    <rect x="470" y="123" width="1626" height="1301"/>
  </clipPath>
</defs>
<path clip-path="url(#clip530)" d="M470.29 1423.18 L2094.92 1423.18 L2094.92 123.472 L470.29 123.472  Z" fill="#ffffff" fill-rule="evenodd" fill-opacity="1"/>
<polyline clip-path="url(#clip531)" style="stroke:#000000; stroke-linecap:round; stroke-linejoin:round; stroke-width:2; stroke-opacity:0.1; fill:none" points="592.904,1423.18 592.904,123.472 "/>
<polyline clip-path="url(#clip531)" style="stroke:#000000; stroke-linecap:round; stroke-linejoin:round; stroke-width:2; stroke-opacity:0.1; fill:none" points="1359.24,1423.18 1359.24,123.472 "/>
<polyline clip-path="url(#clip531)" style="stroke:#000000; stroke-linecap:round; stroke-linejoin:round; stroke-width:2; stroke-opacity:0.1; fill:none" points="1972.31,1423.18 1972.31,123.472 "/>
<polyline clip-path="url(#clip531)" style="stroke:#000000; stroke-linecap:round; stroke-linejoin:round; stroke-width:2; stroke-opacity:0.1; fill:none" points="470.29,1309.76 2094.92,1309.76 "/>
<polyline clip-path="url(#clip531)" style="stroke:#000000; stroke-linecap:round; stroke-linejoin:round; stroke-width:2; stroke-opacity:0.1; fill:none" points="470.29,696.692 2094.92,696.692 "/>
<polyline clip-path="url(#clip531)" style="stroke:#000000; stroke-linecap:round; stroke-linejoin:round; stroke-width:2; stroke-opacity:0.1; fill:none" points="470.29,236.89 2094.92,236.89 "/>
<polyline clip-path="url(#clip530)" style="stroke:#000000; stroke-linecap:round; stroke-linejoin:round; stroke-width:4; stroke-opacity:1; fill:none" points="470.29,1423.18 2094.92,1423.18 "/>
<polyline clip-path="url(#clip530)" style="stroke:#000000; stroke-linecap:round; stroke-linejoin:round; stroke-width:4; stroke-opacity:1; fill:none" points="592.904,1423.18 592.904,1404.28 "/>
<polyline clip-path="url(#clip530)" style="stroke:#000000; stroke-linecap:round; stroke-linejoin:round; stroke-width:4; stroke-opacity:1; fill:none" points="1359.24,1423.18 1359.24,1404.28 "/>
<polyline clip-path="url(#clip530)" style="stroke:#000000; stroke-linecap:round; stroke-linejoin:round; stroke-width:4; stroke-opacity:1; fill:none" points="1972.31,1423.18 1972.31,1404.28 "/>
<path clip-path="url(#clip530)" d="M562.545 1468.75 L592.221 1468.75 L592.221 1472.69 L562.545 1472.69 L562.545 1468.75 Z" fill="#000000" fill-rule="nonzero" fill-opacity="1" /><path clip-path="url(#clip530)" d="M602.36 1451.02 L620.716 1451.02 L620.716 1454.96 L606.642 1454.96 L606.642 1463.43 Q607.661 1463.08 608.679 1462.92 Q609.698 1462.73 610.716 1462.73 Q616.503 1462.73 619.883 1465.9 Q623.263 1469.08 623.263 1474.49 Q623.263 1480.07 619.79 1483.17 Q616.318 1486.25 609.999 1486.25 Q607.823 1486.25 605.554 1485.88 Q603.309 1485.51 600.902 1484.77 L600.902 1480.07 Q602.985 1481.2 605.207 1481.76 Q607.429 1482.32 609.906 1482.32 Q613.911 1482.32 616.249 1480.21 Q618.587 1478.1 618.587 1474.49 Q618.587 1470.88 616.249 1468.77 Q613.911 1466.67 609.906 1466.67 Q608.031 1466.67 606.156 1467.08 Q604.304 1467.5 602.36 1468.38 L602.36 1451.02 Z" fill="#000000" fill-rule="nonzero" fill-opacity="1" /><path clip-path="url(#clip530)" d="M1359.24 1454.1 Q1355.63 1454.1 1353.8 1457.66 Q1352 1461.2 1352 1468.33 Q1352 1475.44 1353.8 1479.01 Q1355.63 1482.55 1359.24 1482.55 Q1362.88 1482.55 1364.68 1479.01 Q1366.51 1475.44 1366.51 1468.33 Q1366.51 1461.2 1364.68 1457.66 Q1362.88 1454.1 1359.24 1454.1 M1359.24 1450.39 Q1365.05 1450.39 1368.11 1455 Q1371.19 1459.58 1371.19 1468.33 Q1371.19 1477.06 1368.11 1481.67 Q1365.05 1486.25 1359.24 1486.25 Q1353.43 1486.25 1350.35 1481.67 Q1347.3 1477.06 1347.3 1468.33 Q1347.3 1459.58 1350.35 1455 Q1353.43 1450.39 1359.24 1450.39 Z" fill="#000000" fill-rule="nonzero" fill-opacity="1" /><path clip-path="url(#clip530)" d="M1975.32 1455.09 L1963.51 1473.54 L1975.32 1473.54 L1975.32 1455.09 M1974.09 1451.02 L1979.97 1451.02 L1979.97 1473.54 L1984.9 1473.54 L1984.9 1477.43 L1979.97 1477.43 L1979.97 1485.58 L1975.32 1485.58 L1975.32 1477.43 L1959.72 1477.43 L1959.72 1472.92 L1974.09 1451.02 Z" fill="#000000" fill-rule="nonzero" fill-opacity="1" /><path clip-path="url(#clip530)" d="M1201.67 1532.4 L1188.78 1549.74 L1202.34 1568.04 L1195.43 1568.04 L1185.05 1554.04 L1174.68 1568.04 L1167.77 1568.04 L1181.62 1549.39 L1168.95 1532.4 L1175.85 1532.4 L1185.31 1545.1 L1194.76 1532.4 L1201.67 1532.4 Z" fill="#000000" fill-rule="nonzero" fill-opacity="1" /><path clip-path="url(#clip530)" d="M1245.4 1518.58 Q1241.13 1525.9 1239.07 1533.06 Q1237 1540.23 1237 1547.58 Q1237 1554.93 1239.07 1562.16 Q1241.17 1569.35 1245.4 1576.64 L1240.31 1576.64 Q1235.53 1569.16 1233.15 1561.93 Q1230.79 1554.71 1230.79 1547.58 Q1230.79 1540.48 1233.15 1533.29 Q1235.5 1526.09 1240.31 1518.58 L1245.4 1518.58 Z" fill="#000000" fill-rule="nonzero" fill-opacity="1" /><path clip-path="url(#clip530)" d="M1284.52 1539.24 Q1286.71 1535.29 1289.77 1533.41 Q1292.82 1531.54 1296.96 1531.54 Q1302.53 1531.54 1305.56 1535.45 Q1308.58 1539.33 1308.58 1546.53 L1308.58 1568.04 L1302.69 1568.04 L1302.69 1546.72 Q1302.69 1541.59 1300.88 1539.11 Q1299.06 1536.63 1295.34 1536.63 Q1290.79 1536.63 1288.15 1539.65 Q1285.5 1542.68 1285.5 1547.9 L1285.5 1568.04 L1279.62 1568.04 L1279.62 1546.72 Q1279.62 1541.56 1277.8 1539.11 Q1275.99 1536.63 1272.2 1536.63 Q1267.71 1536.63 1265.07 1539.68 Q1262.43 1542.71 1262.43 1547.9 L1262.43 1568.04 L1256.54 1568.04 L1256.54 1532.4 L1262.43 1532.4 L1262.43 1537.93 Q1264.43 1534.66 1267.23 1533.1 Q1270.04 1531.54 1273.89 1531.54 Q1277.77 1531.54 1280.47 1533.51 Q1283.21 1535.48 1284.52 1539.24 Z" fill="#000000" fill-rule="nonzero" fill-opacity="1" /><path clip-path="url(#clip530)" d="M1348.02 1539.24 Q1350.21 1535.29 1353.27 1533.41 Q1356.32 1531.54 1360.46 1531.54 Q1366.03 1531.54 1369.05 1535.45 Q1372.08 1539.33 1372.08 1546.53 L1372.08 1568.04 L1366.19 1568.04 L1366.19 1546.72 Q1366.19 1541.59 1364.37 1539.11 Q1362.56 1536.63 1358.84 1536.63 Q1354.29 1536.63 1351.64 1539.65 Q1349 1542.68 1349 1547.9 L1349 1568.04 L1343.11 1568.04 L1343.11 1546.72 Q1343.11 1541.56 1341.3 1539.11 Q1339.48 1536.63 1335.7 1536.63 Q1331.21 1536.63 1328.57 1539.68 Q1325.93 1542.71 1325.93 1547.9 L1325.93 1568.04 L1320.04 1568.04 L1320.04 1532.4 L1325.93 1532.4 L1325.93 1537.93 Q1327.93 1534.66 1330.73 1533.1 Q1333.53 1531.54 1337.38 1531.54 Q1341.27 1531.54 1343.97 1533.51 Q1346.71 1535.48 1348.02 1539.24 Z" fill="#000000" fill-rule="nonzero" fill-opacity="1" /><path clip-path="url(#clip530)" d="M1382.84 1518.58 L1387.93 1518.58 Q1392.7 1526.09 1395.06 1533.29 Q1397.44 1540.48 1397.44 1547.58 Q1397.44 1554.71 1395.06 1561.93 Q1392.7 1569.16 1387.93 1576.64 L1382.84 1576.64 Q1387.07 1569.35 1389.14 1562.16 Q1391.24 1554.93 1391.24 1547.58 Q1391.24 1540.23 1389.14 1533.06 Q1387.07 1525.9 1382.84 1518.58 Z" fill="#000000" fill-rule="nonzero" fill-opacity="1" /><polyline clip-path="url(#clip530)" style="stroke:#000000; stroke-linecap:round; stroke-linejoin:round; stroke-width:4; stroke-opacity:1; fill:none" points="470.29,1423.18 470.29,123.472 "/>
<polyline clip-path="url(#clip530)" style="stroke:#000000; stroke-linecap:round; stroke-linejoin:round; stroke-width:4; stroke-opacity:1; fill:none" points="470.29,1309.76 484.635,1309.76 "/>
<polyline clip-path="url(#clip530)" style="stroke:#000000; stroke-linecap:round; stroke-linejoin:round; stroke-width:4; stroke-opacity:1; fill:none" points="470.29,696.692 484.635,696.692 "/>
<polyline clip-path="url(#clip530)" style="stroke:#000000; stroke-linecap:round; stroke-linejoin:round; stroke-width:4; stroke-opacity:1; fill:none" points="470.29,236.89 484.635,236.89 "/>
<path clip-path="url(#clip530)" d="M372.091 1310.21 L401.767 1310.21 L401.767 1314.15 L372.091 1314.15 L372.091 1310.21 Z" fill="#000000" fill-rule="nonzero" fill-opacity="1" /><path clip-path="url(#clip530)" d="M424.707 1296.56 L412.901 1315 L424.707 1315 L424.707 1296.56 M423.48 1292.48 L429.36 1292.48 L429.36 1315 L434.29 1315 L434.29 1318.89 L429.36 1318.89 L429.36 1327.04 L424.707 1327.04 L424.707 1318.89 L409.105 1318.89 L409.105 1314.38 L423.48 1292.48 Z" fill="#000000" fill-rule="nonzero" fill-opacity="1" /><path clip-path="url(#clip530)" d="M422.346 682.491 Q418.735 682.491 416.906 686.056 Q415.1 689.597 415.1 696.727 Q415.1 703.833 416.906 707.398 Q418.735 710.94 422.346 710.94 Q425.98 710.94 427.785 707.398 Q429.614 703.833 429.614 696.727 Q429.614 689.597 427.785 686.056 Q425.98 682.491 422.346 682.491 M422.346 678.787 Q428.156 678.787 431.211 683.394 Q434.29 687.977 434.29 696.727 Q434.29 705.454 431.211 710.06 Q428.156 714.644 422.346 714.644 Q416.536 714.644 413.457 710.06 Q410.401 705.454 410.401 696.727 Q410.401 687.977 413.457 683.394 Q416.536 678.787 422.346 678.787 Z" fill="#000000" fill-rule="nonzero" fill-opacity="1" /><path clip-path="url(#clip530)" d="M427.16 235.536 Q430.517 236.253 432.392 238.522 Q434.29 240.79 434.29 244.124 Q434.29 249.239 430.772 252.04 Q427.253 254.841 420.772 254.841 Q418.596 254.841 416.281 254.401 Q413.989 253.985 411.536 253.128 L411.536 248.614 Q413.48 249.749 415.795 250.327 Q418.11 250.906 420.633 250.906 Q425.031 250.906 427.323 249.17 Q429.637 247.434 429.637 244.124 Q429.637 241.068 427.485 239.355 Q425.355 237.619 421.536 237.619 L417.508 237.619 L417.508 233.777 L421.721 233.777 Q425.17 233.777 426.998 232.411 Q428.827 231.022 428.827 228.429 Q428.827 225.767 426.929 224.355 Q425.054 222.92 421.536 222.92 Q419.614 222.92 417.415 223.337 Q415.216 223.754 412.577 224.633 L412.577 220.466 Q415.239 219.726 417.554 219.355 Q419.892 218.985 421.952 218.985 Q427.276 218.985 430.378 221.416 Q433.48 223.823 433.48 227.943 Q433.48 230.814 431.836 232.804 Q430.193 234.772 427.16 235.536 Z" fill="#000000" fill-rule="nonzero" fill-opacity="1" /><path clip-path="url(#clip530)" d="M325.146 869.098 Q331.511 871.581 333.453 873.936 Q335.394 876.291 335.394 880.238 L335.394 884.917 L330.493 884.917 L330.493 881.479 Q330.493 879.06 329.347 877.724 Q328.201 876.387 323.936 874.764 L321.262 873.713 L286.187 888.132 L286.187 881.925 L314.069 870.785 L286.187 859.645 L286.187 853.438 L325.146 869.098 Z" fill="#000000" fill-rule="nonzero" fill-opacity="1" /><path clip-path="url(#clip530)" d="M272.374 810.565 Q279.694 814.83 286.856 816.899 Q294.017 818.968 301.37 818.968 Q308.722 818.968 315.947 816.899 Q323.14 814.799 330.429 810.565 L330.429 815.658 Q322.949 820.432 315.724 822.819 Q308.499 825.175 301.37 825.175 Q294.272 825.175 287.079 822.819 Q279.885 820.464 272.374 815.658 L272.374 810.565 Z" fill="#000000" fill-rule="nonzero" fill-opacity="1" /><path clip-path="url(#clip530)" d="M293.031 771.448 Q289.084 769.252 287.206 766.196 Q285.328 763.141 285.328 759.003 Q285.328 753.433 289.243 750.409 Q293.126 747.386 300.319 747.386 L321.835 747.386 L321.835 753.274 L300.51 753.274 Q295.386 753.274 292.903 755.088 Q290.421 756.902 290.421 760.626 Q290.421 765.178 293.444 767.82 Q296.468 770.461 301.688 770.461 L321.835 770.461 L321.835 776.35 L300.51 776.35 Q295.354 776.35 292.903 778.164 Q290.421 779.978 290.421 783.766 Q290.421 788.254 293.476 790.895 Q296.5 793.537 301.688 793.537 L321.835 793.537 L321.835 799.425 L286.187 799.425 L286.187 793.537 L291.726 793.537 Q288.447 791.532 286.888 788.731 Q285.328 785.93 285.328 782.079 Q285.328 778.196 287.301 775.49 Q289.275 772.753 293.031 771.448 Z" fill="#000000" fill-rule="nonzero" fill-opacity="1" /><path clip-path="url(#clip530)" d="M293.031 707.95 Q289.084 705.754 287.206 702.698 Q285.328 699.643 285.328 695.505 Q285.328 689.935 289.243 686.912 Q293.126 683.888 300.319 683.888 L321.835 683.888 L321.835 689.776 L300.51 689.776 Q295.386 689.776 292.903 691.59 Q290.421 693.405 290.421 697.128 Q290.421 701.68 293.444 704.322 Q296.468 706.963 301.688 706.963 L321.835 706.963 L321.835 712.852 L300.51 712.852 Q295.354 712.852 292.903 714.666 Q290.421 716.48 290.421 720.268 Q290.421 724.756 293.476 727.397 Q296.5 730.039 301.688 730.039 L321.835 730.039 L321.835 735.927 L286.187 735.927 L286.187 730.039 L291.726 730.039 Q288.447 728.034 286.888 725.233 Q285.328 722.432 285.328 718.581 Q285.328 714.698 287.301 711.992 Q289.275 709.255 293.031 707.95 Z" fill="#000000" fill-rule="nonzero" fill-opacity="1" /><path clip-path="url(#clip530)" d="M272.374 673.13 L272.374 668.037 Q279.885 663.263 287.079 660.908 Q294.272 658.52 301.37 658.52 Q308.499 658.52 315.724 660.908 Q322.949 663.263 330.429 668.037 L330.429 673.13 Q323.14 668.897 315.947 666.828 Q308.722 664.727 301.37 664.727 Q294.017 664.727 286.856 666.828 Q279.694 668.897 272.374 673.13 Z" fill="#000000" fill-rule="nonzero" fill-opacity="1" /><path clip-path="url(#clip530)" d="M883.836 32.4315 Q877.841 32.4315 874.357 37.1306 Q870.873 41.7891 870.873 49.9314 Q870.873 58.0738 874.317 62.7728 Q877.801 67.4314 883.836 67.4314 Q889.791 67.4314 893.275 62.7323 Q896.759 58.0333 896.759 49.9314 Q896.759 41.8701 893.275 37.1711 Q889.791 32.4315 883.836 32.4315 M883.836 26.1121 Q893.559 26.1121 899.108 32.4315 Q904.658 38.7509 904.658 49.9314 Q904.658 61.0714 899.108 67.4314 Q893.559 73.7508 883.836 73.7508 Q874.074 73.7508 868.524 67.4314 Q863.015 61.0714 863.015 49.9314 Q863.015 38.7509 868.524 32.4315 Q874.074 26.1121 883.836 26.1121 Z" fill="#000000" fill-rule="nonzero" fill-opacity="1" /><path clip-path="url(#clip530)" d="M939.982 9.54393 L939.982 15.7418 L932.852 15.7418 Q928.842 15.7418 927.262 17.3622 Q925.723 18.9825 925.723 23.1955 L925.723 27.2059 L937.997 27.2059 L937.997 32.9987 L925.723 32.9987 L925.723 72.576 L918.229 72.576 L918.229 32.9987 L911.099 32.9987 L911.099 27.2059 L918.229 27.2059 L918.229 24.0462 Q918.229 16.471 921.753 13.0277 Q925.277 9.54393 932.933 9.54393 L939.982 9.54393 Z" fill="#000000" fill-rule="nonzero" fill-opacity="1" /><path clip-path="url(#clip530)" d="M969.189 9.54393 L969.189 15.7418 L962.059 15.7418 Q958.049 15.7418 956.469 17.3622 Q954.93 18.9825 954.93 23.1955 L954.93 27.2059 L967.204 27.2059 L967.204 32.9987 L954.93 32.9987 L954.93 72.576 L947.436 72.576 L947.436 32.9987 L940.306 32.9987 L940.306 27.2059 L947.436 27.2059 L947.436 24.0462 Q947.436 16.471 950.96 13.0277 Q954.484 9.54393 962.14 9.54393 L969.189 9.54393 Z" fill="#000000" fill-rule="nonzero" fill-opacity="1" /><path clip-path="url(#clip530)" d="M1004.35 28.5427 L1004.35 35.5912 Q1001.19 33.9709 997.788 33.1607 Q994.386 32.3505 990.74 32.3505 Q985.19 32.3505 982.395 34.0519 Q979.64 35.7533 979.64 39.156 Q979.64 41.7486 981.625 43.2475 Q983.61 44.7058 989.605 46.0426 L992.158 46.6097 Q1000.1 48.3111 1003.42 51.4303 Q1006.78 54.509 1006.78 60.0587 Q1006.78 66.3781 1001.76 70.0644 Q996.776 73.7508 988.026 73.7508 Q984.38 73.7508 980.41 73.0216 Q976.481 72.3329 972.106 70.9151 L972.106 63.2184 Q976.238 65.3654 980.248 66.4591 Q984.258 67.5124 988.188 67.5124 Q993.454 67.5124 996.289 65.73 Q999.125 63.9071 999.125 60.6258 Q999.125 57.5877 997.059 55.9673 Q995.034 54.3469 988.107 52.8481 L985.514 52.2405 Q978.587 50.7821 975.508 47.7845 Q972.43 44.7463 972.43 39.4801 Q972.43 33.0797 976.967 29.5959 Q981.504 26.1121 989.849 26.1121 Q993.98 26.1121 997.626 26.7198 Q1001.27 27.3274 1004.35 28.5427 Z" fill="#000000" fill-rule="nonzero" fill-opacity="1" /><path clip-path="url(#clip530)" d="M1057.46 48.0275 L1057.46 51.6733 L1023.19 51.6733 Q1023.67 59.3701 1027.81 63.421 Q1031.98 67.4314 1039.39 67.4314 Q1043.69 67.4314 1047.7 66.3781 Q1051.75 65.3249 1055.72 63.2184 L1055.72 70.267 Q1051.71 71.9684 1047.49 72.8596 Q1043.28 73.7508 1038.95 73.7508 Q1028.09 73.7508 1021.73 67.4314 Q1015.41 61.1119 1015.41 50.3365 Q1015.41 39.1965 1021.41 32.6746 Q1027.44 26.1121 1037.65 26.1121 Q1046.8 26.1121 1052.11 32.0264 Q1057.46 37.9003 1057.46 48.0275 M1050 45.84 Q1049.92 39.7232 1046.56 36.0774 Q1043.24 32.4315 1037.73 32.4315 Q1031.49 32.4315 1027.72 35.9558 Q1024 39.4801 1023.43 45.8805 L1050 45.84 Z" fill="#000000" fill-rule="nonzero" fill-opacity="1" /><path clip-path="url(#clip530)" d="M1077.06 14.324 L1077.06 27.2059 L1092.42 27.2059 L1092.42 32.9987 L1077.06 32.9987 L1077.06 57.6282 Q1077.06 63.1779 1078.56 64.7578 Q1080.1 66.3376 1084.76 66.3376 L1092.42 66.3376 L1092.42 72.576 L1084.76 72.576 Q1076.13 72.576 1072.85 69.3758 Q1069.57 66.1351 1069.57 57.6282 L1069.57 32.9987 L1064.1 32.9987 L1064.1 27.2059 L1069.57 27.2059 L1069.57 14.324 L1077.06 14.324 Z" fill="#000000" fill-rule="nonzero" fill-opacity="1" /><path clip-path="url(#clip530)" d="M1131.14 28.5427 L1131.14 35.5912 Q1127.98 33.9709 1124.58 33.1607 Q1121.18 32.3505 1117.53 32.3505 Q1111.98 32.3505 1109.19 34.0519 Q1106.43 35.7533 1106.43 39.156 Q1106.43 41.7486 1108.42 43.2475 Q1110.4 44.7058 1116.4 46.0426 L1118.95 46.6097 Q1126.89 48.3111 1130.21 51.4303 Q1133.57 54.509 1133.57 60.0587 Q1133.57 66.3781 1128.55 70.0644 Q1123.57 73.7508 1114.82 73.7508 Q1111.17 73.7508 1107.2 73.0216 Q1103.27 72.3329 1098.9 70.9151 L1098.9 63.2184 Q1103.03 65.3654 1107.04 66.4591 Q1111.05 67.5124 1114.98 67.5124 Q1120.25 67.5124 1123.08 65.73 Q1125.92 63.9071 1125.92 60.6258 Q1125.92 57.5877 1123.85 55.9673 Q1121.83 54.3469 1114.9 52.8481 L1112.31 52.2405 Q1105.38 50.7821 1102.3 47.7845 Q1099.22 44.7463 1099.22 39.4801 Q1099.22 33.0797 1103.76 29.5959 Q1108.3 26.1121 1116.64 26.1121 Q1120.77 26.1121 1124.42 26.7198 Q1128.07 27.3274 1131.14 28.5427 Z" fill="#000000" fill-rule="nonzero" fill-opacity="1" /><path clip-path="url(#clip530)" d="M1189.72 9.62495 Q1184.29 18.942 1181.66 28.0566 Q1179.03 37.1711 1179.03 46.5287 Q1179.03 55.8863 1181.66 65.0818 Q1184.33 74.2369 1189.72 83.5134 L1183.24 83.5134 Q1177.16 73.9938 1174.12 64.7983 Q1171.13 55.6027 1171.13 46.5287 Q1171.13 37.4952 1174.12 28.3401 Q1177.12 19.1851 1183.24 9.62495 L1189.72 9.62495 Z" fill="#000000" fill-rule="nonzero" fill-opacity="1" /><path clip-path="url(#clip530)" d="M1222.74 17.4837 Q1216.42 17.4837 1213.22 23.7221 Q1210.06 29.92 1210.06 42.3968 Q1210.06 54.833 1213.22 61.0714 Q1216.42 67.2693 1222.74 67.2693 Q1229.09 67.2693 1232.25 61.0714 Q1235.45 54.833 1235.45 42.3968 Q1235.45 29.92 1232.25 23.7221 Q1229.09 17.4837 1222.74 17.4837 M1222.74 11.0023 Q1232.9 11.0023 1238.25 19.0636 Q1243.64 27.0843 1243.64 42.3968 Q1243.64 57.6687 1238.25 65.73 Q1232.9 73.7508 1222.74 73.7508 Q1212.57 73.7508 1207.18 65.73 Q1201.83 57.6687 1201.83 42.3968 Q1201.83 27.0843 1207.18 19.0636 Q1212.57 11.0023 1222.74 11.0023 Z" fill="#000000" fill-rule="nonzero" fill-opacity="1" /><path clip-path="url(#clip530)" d="M1258.02 62.2867 L1266.57 62.2867 L1266.57 72.576 L1258.02 72.576 L1258.02 62.2867 Z" fill="#000000" fill-rule="nonzero" fill-opacity="1" /><path clip-path="url(#clip530)" d="M1284.47 12.096 L1316.59 12.096 L1316.59 18.9825 L1291.96 18.9825 L1291.96 33.8088 Q1293.75 33.2012 1295.53 32.9176 Q1297.31 32.5936 1299.09 32.5936 Q1309.22 32.5936 1315.14 38.1433 Q1321.05 43.6931 1321.05 53.1722 Q1321.05 62.9348 1314.97 68.3631 Q1308.9 73.7508 1297.84 73.7508 Q1294.03 73.7508 1290.06 73.1026 Q1286.13 72.4545 1281.92 71.1582 L1281.92 62.9348 Q1285.56 64.9198 1289.45 65.892 Q1293.34 66.8642 1297.68 66.8642 Q1304.68 66.8642 1308.78 63.1779 Q1312.87 59.4916 1312.87 53.1722 Q1312.87 46.8528 1308.78 43.1664 Q1304.68 39.4801 1297.68 39.4801 Q1294.4 39.4801 1291.11 40.2093 Q1287.87 40.9384 1284.47 42.4778 L1284.47 12.096 Z" fill="#000000" fill-rule="nonzero" fill-opacity="1" /><path clip-path="url(#clip530)" d="M1359.09 9.54393 L1359.09 15.7418 L1351.96 15.7418 Q1347.95 15.7418 1346.37 17.3622 Q1344.83 18.9825 1344.83 23.1955 L1344.83 27.2059 L1357.1 27.2059 L1357.1 32.9987 L1344.83 32.9987 L1344.83 72.576 L1337.34 72.576 L1337.34 32.9987 L1330.21 32.9987 L1330.21 27.2059 L1337.34 27.2059 L1337.34 24.0462 Q1337.34 16.471 1340.86 13.0277 Q1344.38 9.54393 1352.04 9.54393 L1359.09 9.54393 Z" fill="#000000" fill-rule="nonzero" fill-opacity="1" /><path clip-path="url(#clip530)" d="M1383.88 17.4837 Q1377.56 17.4837 1374.36 23.7221 Q1371.2 29.92 1371.2 42.3968 Q1371.2 54.833 1374.36 61.0714 Q1377.56 67.2693 1383.88 67.2693 Q1390.24 67.2693 1393.4 61.0714 Q1396.6 54.833 1396.6 42.3968 Q1396.6 29.92 1393.4 23.7221 Q1390.24 17.4837 1383.88 17.4837 M1383.88 11.0023 Q1394.05 11.0023 1399.39 19.0636 Q1404.78 27.0843 1404.78 42.3968 Q1404.78 57.6687 1399.39 65.73 Q1394.05 73.7508 1383.88 73.7508 Q1373.71 73.7508 1368.32 65.73 Q1362.98 57.6687 1362.98 42.3968 Q1362.98 27.0843 1368.32 19.0636 Q1373.71 11.0023 1383.88 11.0023 Z" fill="#000000" fill-rule="nonzero" fill-opacity="1" /><path clip-path="url(#clip530)" d="M1420.01 62.2867 L1428.56 62.2867 L1428.56 69.2543 L1421.92 82.2172 L1416.69 82.2172 L1420.01 69.2543 L1420.01 62.2867 Z" fill="#000000" fill-rule="nonzero" fill-opacity="1" /><path clip-path="url(#clip530)" d="M1489.41 17.4837 Q1483.09 17.4837 1479.89 23.7221 Q1476.73 29.92 1476.73 42.3968 Q1476.73 54.833 1479.89 61.0714 Q1483.09 67.2693 1489.41 67.2693 Q1495.77 67.2693 1498.93 61.0714 Q1502.13 54.833 1502.13 42.3968 Q1502.13 29.92 1498.93 23.7221 Q1495.77 17.4837 1489.41 17.4837 M1489.41 11.0023 Q1499.57 11.0023 1504.92 19.0636 Q1510.31 27.0843 1510.31 42.3968 Q1510.31 57.6687 1504.92 65.73 Q1499.57 73.7508 1489.41 73.7508 Q1479.24 73.7508 1473.85 65.73 Q1468.5 57.6687 1468.5 42.3968 Q1468.5 27.0843 1473.85 19.0636 Q1479.24 11.0023 1489.41 11.0023 Z" fill="#000000" fill-rule="nonzero" fill-opacity="1" /><path clip-path="url(#clip530)" d="M1524.69 62.2867 L1533.24 62.2867 L1533.24 72.576 L1524.69 72.576 L1524.69 62.2867 Z" fill="#000000" fill-rule="nonzero" fill-opacity="1" /><path clip-path="url(#clip530)" d="M1551.14 12.096 L1583.27 12.096 L1583.27 18.9825 L1558.64 18.9825 L1558.64 33.8088 Q1560.42 33.2012 1562.2 32.9176 Q1563.98 32.5936 1565.77 32.5936 Q1575.89 32.5936 1581.81 38.1433 Q1587.72 43.6931 1587.72 53.1722 Q1587.72 62.9348 1581.65 68.3631 Q1575.57 73.7508 1564.51 73.7508 Q1560.7 73.7508 1556.73 73.1026 Q1552.8 72.4545 1548.59 71.1582 L1548.59 62.9348 Q1552.24 64.9198 1556.12 65.892 Q1560.01 66.8642 1564.35 66.8642 Q1571.36 66.8642 1575.45 63.1779 Q1579.54 59.4916 1579.54 53.1722 Q1579.54 46.8528 1575.45 43.1664 Q1571.36 39.4801 1564.35 39.4801 Q1561.07 39.4801 1557.79 40.2093 Q1554.54 40.9384 1551.14 42.4778 L1551.14 12.096 Z" fill="#000000" fill-rule="nonzero" fill-opacity="1" /><path clip-path="url(#clip530)" d="M1625.76 9.54393 L1625.76 15.7418 L1618.63 15.7418 Q1614.62 15.7418 1613.04 17.3622 Q1611.5 18.9825 1611.5 23.1955 L1611.5 27.2059 L1623.77 27.2059 L1623.77 32.9987 L1611.5 32.9987 L1611.5 72.576 L1604.01 72.576 L1604.01 32.9987 L1596.88 32.9987 L1596.88 27.2059 L1604.01 27.2059 L1604.01 24.0462 Q1604.01 16.471 1607.53 13.0277 Q1611.05 9.54393 1618.71 9.54393 L1625.76 9.54393 Z" fill="#000000" fill-rule="nonzero" fill-opacity="1" /><path clip-path="url(#clip530)" d="M1650.55 17.4837 Q1644.23 17.4837 1641.03 23.7221 Q1637.87 29.92 1637.87 42.3968 Q1637.87 54.833 1641.03 61.0714 Q1644.23 67.2693 1650.55 67.2693 Q1656.91 67.2693 1660.07 61.0714 Q1663.27 54.833 1663.27 42.3968 Q1663.27 29.92 1660.07 23.7221 Q1656.91 17.4837 1650.55 17.4837 M1650.55 11.0023 Q1660.72 11.0023 1666.07 19.0636 Q1671.45 27.0843 1671.45 42.3968 Q1671.45 57.6687 1666.07 65.73 Q1660.72 73.7508 1650.55 73.7508 Q1640.38 73.7508 1635 65.73 Q1629.65 57.6687 1629.65 42.3968 Q1629.65 27.0843 1635 19.0636 Q1640.38 11.0023 1650.55 11.0023 Z" fill="#000000" fill-rule="nonzero" fill-opacity="1" /><path clip-path="url(#clip530)" d="M1683.61 9.62495 L1690.09 9.62495 Q1696.16 19.1851 1699.16 28.3401 Q1702.2 37.4952 1702.2 46.5287 Q1702.2 55.6027 1699.16 64.7983 Q1696.16 73.9938 1690.09 83.5134 L1683.61 83.5134 Q1688.99 74.2369 1691.63 65.0818 Q1694.3 55.8863 1694.3 46.5287 Q1694.3 37.1711 1691.63 28.0566 Q1688.99 18.942 1683.61 9.62495 Z" fill="#000000" fill-rule="nonzero" fill-opacity="1" /><circle clip-path="url(#clip531)" cx="592.904" cy="1309.76" r="14.4" fill="#009af9" fill-rule="evenodd" fill-opacity="1" stroke="none"/>
<circle clip-path="url(#clip531)" cx="746.171" cy="1309.76" r="14.4" fill="#009af9" fill-rule="evenodd" fill-opacity="1" stroke="none"/>
<circle clip-path="url(#clip531)" cx="899.439" cy="1309.76" r="14.4" fill="#009af9" fill-rule="evenodd" fill-opacity="1" stroke="none"/>
<circle clip-path="url(#clip531)" cx="1052.71" cy="1309.76" r="14.4" fill="#009af9" fill-rule="evenodd" fill-opacity="1" stroke="none"/>
<circle clip-path="url(#clip531)" cx="1205.97" cy="1309.76" r="14.4" fill="#009af9" fill-rule="evenodd" fill-opacity="1" stroke="none"/>
<circle clip-path="url(#clip531)" cx="1359.24" cy="1309.76" r="14.4" fill="#009af9" fill-rule="evenodd" fill-opacity="1" stroke="none"/>
<circle clip-path="url(#clip531)" cx="1512.51" cy="1309.76" r="14.4" fill="#009af9" fill-rule="evenodd" fill-opacity="1" stroke="none"/>
<circle clip-path="url(#clip531)" cx="1665.78" cy="1309.76" r="14.4" fill="#009af9" fill-rule="evenodd" fill-opacity="1" stroke="none"/>
<circle clip-path="url(#clip531)" cx="1819.04" cy="1309.76" r="14.4" fill="#009af9" fill-rule="evenodd" fill-opacity="1" stroke="none"/>
<circle clip-path="url(#clip531)" cx="1972.31" cy="1309.76" r="14.4" fill="#009af9" fill-rule="evenodd" fill-opacity="1" stroke="none"/>
<circle clip-path="url(#clip531)" cx="592.904" cy="1156.49" r="14.4" fill="#e26f46" fill-rule="evenodd" fill-opacity="1" stroke="none"/>
<circle clip-path="url(#clip531)" cx="746.171" cy="1156.49" r="14.4" fill="#e26f46" fill-rule="evenodd" fill-opacity="1" stroke="none"/>
<circle clip-path="url(#clip531)" cx="899.439" cy="1156.49" r="14.4" fill="#e26f46" fill-rule="evenodd" fill-opacity="1" stroke="none"/>
<circle clip-path="url(#clip531)" cx="1052.71" cy="1156.49" r="14.4" fill="#e26f46" fill-rule="evenodd" fill-opacity="1" stroke="none"/>
<circle clip-path="url(#clip531)" cx="1205.97" cy="1156.49" r="14.4" fill="#e26f46" fill-rule="evenodd" fill-opacity="1" stroke="none"/>
<circle clip-path="url(#clip531)" cx="1359.24" cy="1156.49" r="14.4" fill="#e26f46" fill-rule="evenodd" fill-opacity="1" stroke="none"/>
<circle clip-path="url(#clip531)" cx="1512.51" cy="1156.49" r="14.4" fill="#e26f46" fill-rule="evenodd" fill-opacity="1" stroke="none"/>
<circle clip-path="url(#clip531)" cx="1665.78" cy="1156.49" r="14.4" fill="#e26f46" fill-rule="evenodd" fill-opacity="1" stroke="none"/>
<circle clip-path="url(#clip531)" cx="1819.04" cy="1156.49" r="14.4" fill="#e26f46" fill-rule="evenodd" fill-opacity="1" stroke="none"/>
<circle clip-path="url(#clip531)" cx="1972.31" cy="1156.49" r="14.4" fill="#e26f46" fill-rule="evenodd" fill-opacity="1" stroke="none"/>
<circle clip-path="url(#clip531)" cx="592.904" cy="1003.23" r="14.4" fill="#3da44d" fill-rule="evenodd" fill-opacity="1" stroke="none"/>
<circle clip-path="url(#clip531)" cx="746.171" cy="1003.23" r="14.4" fill="#3da44d" fill-rule="evenodd" fill-opacity="1" stroke="none"/>
<circle clip-path="url(#clip531)" cx="899.439" cy="1003.23" r="14.4" fill="#3da44d" fill-rule="evenodd" fill-opacity="1" stroke="none"/>
<circle clip-path="url(#clip531)" cx="1052.71" cy="1003.23" r="14.4" fill="#3da44d" fill-rule="evenodd" fill-opacity="1" stroke="none"/>
<circle clip-path="url(#clip531)" cx="1205.97" cy="1003.23" r="14.4" fill="#3da44d" fill-rule="evenodd" fill-opacity="1" stroke="none"/>
<circle clip-path="url(#clip531)" cx="1359.24" cy="1003.23" r="14.4" fill="#3da44d" fill-rule="evenodd" fill-opacity="1" stroke="none"/>
<circle clip-path="url(#clip531)" cx="1512.51" cy="1003.23" r="14.4" fill="#3da44d" fill-rule="evenodd" fill-opacity="1" stroke="none"/>
<circle clip-path="url(#clip531)" cx="1665.78" cy="1003.23" r="14.4" fill="#3da44d" fill-rule="evenodd" fill-opacity="1" stroke="none"/>
<circle clip-path="url(#clip531)" cx="1819.04" cy="1003.23" r="14.4" fill="#3da44d" fill-rule="evenodd" fill-opacity="1" stroke="none"/>
<circle clip-path="url(#clip531)" cx="1972.31" cy="1003.23" r="14.4" fill="#3da44d" fill-rule="evenodd" fill-opacity="1" stroke="none"/>
<circle clip-path="url(#clip531)" cx="592.904" cy="849.96" r="14.4" fill="#c271d2" fill-rule="evenodd" fill-opacity="1" stroke="none"/>
<circle clip-path="url(#clip531)" cx="746.171" cy="849.96" r="14.4" fill="#c271d2" fill-rule="evenodd" fill-opacity="1" stroke="none"/>
<circle clip-path="url(#clip531)" cx="899.439" cy="849.96" r="14.4" fill="#c271d2" fill-rule="evenodd" fill-opacity="1" stroke="none"/>
<circle clip-path="url(#clip531)" cx="1052.71" cy="849.96" r="14.4" fill="#c271d2" fill-rule="evenodd" fill-opacity="1" stroke="none"/>
<circle clip-path="url(#clip531)" cx="1205.97" cy="849.96" r="14.4" fill="#c271d2" fill-rule="evenodd" fill-opacity="1" stroke="none"/>
<circle clip-path="url(#clip531)" cx="1359.24" cy="849.96" r="14.4" fill="#c271d2" fill-rule="evenodd" fill-opacity="1" stroke="none"/>
<circle clip-path="url(#clip531)" cx="1512.51" cy="849.96" r="14.4" fill="#c271d2" fill-rule="evenodd" fill-opacity="1" stroke="none"/>
<circle clip-path="url(#clip531)" cx="1665.78" cy="849.96" r="14.4" fill="#c271d2" fill-rule="evenodd" fill-opacity="1" stroke="none"/>
<circle clip-path="url(#clip531)" cx="1819.04" cy="849.96" r="14.4" fill="#c271d2" fill-rule="evenodd" fill-opacity="1" stroke="none"/>
<circle clip-path="url(#clip531)" cx="1972.31" cy="849.96" r="14.4" fill="#c271d2" fill-rule="evenodd" fill-opacity="1" stroke="none"/>
<circle clip-path="url(#clip531)" cx="592.904" cy="696.692" r="14.4" fill="#ac8d18" fill-rule="evenodd" fill-opacity="1" stroke="none"/>
<circle clip-path="url(#clip531)" cx="746.171" cy="696.692" r="14.4" fill="#ac8d18" fill-rule="evenodd" fill-opacity="1" stroke="none"/>
<circle clip-path="url(#clip531)" cx="899.439" cy="696.692" r="14.4" fill="#ac8d18" fill-rule="evenodd" fill-opacity="1" stroke="none"/>
<circle clip-path="url(#clip531)" cx="1052.71" cy="696.692" r="14.4" fill="#ac8d18" fill-rule="evenodd" fill-opacity="1" stroke="none"/>
<circle clip-path="url(#clip531)" cx="1205.97" cy="696.692" r="14.4" fill="#ac8d18" fill-rule="evenodd" fill-opacity="1" stroke="none"/>
<circle clip-path="url(#clip531)" cx="1359.24" cy="696.692" r="14.4" fill="#ac8d18" fill-rule="evenodd" fill-opacity="1" stroke="none"/>
<circle clip-path="url(#clip531)" cx="1512.51" cy="696.692" r="14.4" fill="#ac8d18" fill-rule="evenodd" fill-opacity="1" stroke="none"/>
<circle clip-path="url(#clip531)" cx="1665.78" cy="696.692" r="14.4" fill="#ac8d18" fill-rule="evenodd" fill-opacity="1" stroke="none"/>
<circle clip-path="url(#clip531)" cx="1819.04" cy="696.692" r="14.4" fill="#ac8d18" fill-rule="evenodd" fill-opacity="1" stroke="none"/>
<circle clip-path="url(#clip531)" cx="1972.31" cy="696.692" r="14.4" fill="#ac8d18" fill-rule="evenodd" fill-opacity="1" stroke="none"/>
<circle clip-path="url(#clip531)" cx="592.904" cy="543.425" r="14.4" fill="#00a9ad" fill-rule="evenodd" fill-opacity="1" stroke="none"/>
<circle clip-path="url(#clip531)" cx="746.171" cy="543.425" r="14.4" fill="#00a9ad" fill-rule="evenodd" fill-opacity="1" stroke="none"/>
<circle clip-path="url(#clip531)" cx="899.439" cy="543.425" r="14.4" fill="#00a9ad" fill-rule="evenodd" fill-opacity="1" stroke="none"/>
<circle clip-path="url(#clip531)" cx="1052.71" cy="543.425" r="14.4" fill="#00a9ad" fill-rule="evenodd" fill-opacity="1" stroke="none"/>
<circle clip-path="url(#clip531)" cx="1205.97" cy="543.425" r="14.4" fill="#00a9ad" fill-rule="evenodd" fill-opacity="1" stroke="none"/>
<circle clip-path="url(#clip531)" cx="1359.24" cy="543.425" r="14.4" fill="#00a9ad" fill-rule="evenodd" fill-opacity="1" stroke="none"/>
<circle clip-path="url(#clip531)" cx="1512.51" cy="543.425" r="14.4" fill="#00a9ad" fill-rule="evenodd" fill-opacity="1" stroke="none"/>
<circle clip-path="url(#clip531)" cx="1665.78" cy="543.425" r="14.4" fill="#00a9ad" fill-rule="evenodd" fill-opacity="1" stroke="none"/>
<circle clip-path="url(#clip531)" cx="1819.04" cy="543.425" r="14.4" fill="#00a9ad" fill-rule="evenodd" fill-opacity="1" stroke="none"/>
<circle clip-path="url(#clip531)" cx="1972.31" cy="543.425" r="14.4" fill="#00a9ad" fill-rule="evenodd" fill-opacity="1" stroke="none"/>
<circle clip-path="url(#clip531)" cx="592.904" cy="390.157" r="14.4" fill="#ed5d92" fill-rule="evenodd" fill-opacity="1" stroke="none"/>
<circle clip-path="url(#clip531)" cx="746.171" cy="390.157" r="14.4" fill="#ed5d92" fill-rule="evenodd" fill-opacity="1" stroke="none"/>
<circle clip-path="url(#clip531)" cx="899.439" cy="390.157" r="14.4" fill="#ed5d92" fill-rule="evenodd" fill-opacity="1" stroke="none"/>
<circle clip-path="url(#clip531)" cx="1052.71" cy="390.157" r="14.4" fill="#ed5d92" fill-rule="evenodd" fill-opacity="1" stroke="none"/>
<circle clip-path="url(#clip531)" cx="1205.97" cy="390.157" r="14.4" fill="#ed5d92" fill-rule="evenodd" fill-opacity="1" stroke="none"/>
<circle clip-path="url(#clip531)" cx="1359.24" cy="390.157" r="14.4" fill="#ed5d92" fill-rule="evenodd" fill-opacity="1" stroke="none"/>
<circle clip-path="url(#clip531)" cx="1512.51" cy="390.157" r="14.4" fill="#ed5d92" fill-rule="evenodd" fill-opacity="1" stroke="none"/>
<circle clip-path="url(#clip531)" cx="1665.78" cy="390.157" r="14.4" fill="#ed5d92" fill-rule="evenodd" fill-opacity="1" stroke="none"/>
<circle clip-path="url(#clip531)" cx="1819.04" cy="390.157" r="14.4" fill="#ed5d92" fill-rule="evenodd" fill-opacity="1" stroke="none"/>
<circle clip-path="url(#clip531)" cx="1972.31" cy="390.157" r="14.4" fill="#ed5d92" fill-rule="evenodd" fill-opacity="1" stroke="none"/>
<circle clip-path="url(#clip531)" cx="592.904" cy="236.89" r="14.4" fill="#c68125" fill-rule="evenodd" fill-opacity="1" stroke="none"/>
<circle clip-path="url(#clip531)" cx="746.171" cy="236.89" r="14.4" fill="#c68125" fill-rule="evenodd" fill-opacity="1" stroke="none"/>
<circle clip-path="url(#clip531)" cx="899.439" cy="236.89" r="14.4" fill="#c68125" fill-rule="evenodd" fill-opacity="1" stroke="none"/>
<circle clip-path="url(#clip531)" cx="1052.71" cy="236.89" r="14.4" fill="#c68125" fill-rule="evenodd" fill-opacity="1" stroke="none"/>
<circle clip-path="url(#clip531)" cx="1205.97" cy="236.89" r="14.4" fill="#c68125" fill-rule="evenodd" fill-opacity="1" stroke="none"/>
<circle clip-path="url(#clip531)" cx="1359.24" cy="236.89" r="14.4" fill="#c68125" fill-rule="evenodd" fill-opacity="1" stroke="none"/>
<circle clip-path="url(#clip531)" cx="1512.51" cy="236.89" r="14.4" fill="#c68125" fill-rule="evenodd" fill-opacity="1" stroke="none"/>
<circle clip-path="url(#clip531)" cx="1665.78" cy="236.89" r="14.4" fill="#c68125" fill-rule="evenodd" fill-opacity="1" stroke="none"/>
<circle clip-path="url(#clip531)" cx="1819.04" cy="236.89" r="14.4" fill="#c68125" fill-rule="evenodd" fill-opacity="1" stroke="none"/>
<circle clip-path="url(#clip531)" cx="1972.31" cy="236.89" r="14.4" fill="#c68125" fill-rule="evenodd" fill-opacity="1" stroke="none"/>
</svg>
