<?xml version="1.0" encoding="utf-8"?>
<svg xmlns="http://www.w3.org/2000/svg" xmlns:xlink="http://www.w3.org/1999/xlink" width="600" height="400" viewBox="0 0 2400 1600">
<defs>
  <clipPath id="clip450">
    <rect x="0" y="0" width="2400" height="1600"/>
  </clipPath>
</defs>
<path clip-path="url(#clip450)" d="M0 1600 L2400 1600 L2400 0 L0 0  Z" fill="#ffffff" fill-rule="evenodd" fill-opacity="1"/>
<defs>
  <clipPath id="clip451">
    <rect x="480" y="0" width="1681" height="1600"/>
  </clipPath>
</defs>
<path clip-path="url(#clip450)" d="M546.319 1423.18 L2062.65 1423.18 L2062.65 123.472 L546.319 123.472  Z" fill="#ffffff" fill-rule="evenodd" fill-opacity="1"/>
<defs>
  <clipPath id="clip452">
    <rect x="546" y="123" width="1517" height="1301"/>
  </clipPath>
</defs>
<polyline clip-path="url(#clip452)" style="stroke:#000000; stroke-linecap:round; stroke-linejoin:round; stroke-width:2; stroke-opacity:0.1; fill:none" points="691.413,1423.18 691.413,123.472 "/>
<polyline clip-path="url(#clip452)" style="stroke:#000000; stroke-linecap:round; stroke-linejoin:round; stroke-width:2; stroke-opacity:0.1; fill:none" points="1304.48,1423.18 1304.48,123.472 "/>
<polyline clip-path="url(#clip452)" style="stroke:#000000; stroke-linecap:round; stroke-linejoin:round; stroke-width:2; stroke-opacity:0.1; fill:none" points="1917.55,1423.18 1917.55,123.472 "/>
<polyline clip-path="url(#clip450)" style="stroke:#000000; stroke-linecap:round; stroke-linejoin:round; stroke-width:4; stroke-opacity:1; fill:none" points="546.319,1423.18 2062.65,1423.18 "/>
<polyline clip-path="url(#clip450)" style="stroke:#000000; stroke-linecap:round; stroke-linejoin:round; stroke-width:4; stroke-opacity:1; fill:none" points="691.413,1423.18 691.413,1404.28 "/>
<polyline clip-path="url(#clip450)" style="stroke:#000000; stroke-linecap:round; stroke-linejoin:round; stroke-width:4; stroke-opacity:1; fill:none" points="1304.48,1423.18 1304.48,1404.28 "/>
<polyline clip-path="url(#clip450)" style="stroke:#000000; stroke-linecap:round; stroke-linejoin:round; stroke-width:4; stroke-opacity:1; fill:none" points="1917.55,1423.18 1917.55,1404.28 "/>
<path clip-path="url(#clip450)" d="M660.88 1468.75 L690.556 1468.75 L690.556 1472.69 L660.88 1472.69 L660.88 1468.75 Z" fill="#000000" fill-rule="nonzero" fill-opacity="1" /><path clip-path="url(#clip450)" d="M714.815 1466.95 Q718.172 1467.66 720.047 1469.93 Q721.945 1472.2 721.945 1475.53 Q721.945 1480.65 718.426 1483.45 Q714.908 1486.25 708.426 1486.25 Q706.25 1486.25 703.936 1485.81 Q701.644 1485.39 699.19 1484.54 L699.19 1480.02 Q701.135 1481.16 703.45 1481.74 Q705.764 1482.32 708.288 1482.32 Q712.686 1482.32 714.977 1480.58 Q717.292 1478.84 717.292 1475.53 Q717.292 1472.48 715.139 1470.77 Q713.01 1469.03 709.19 1469.03 L705.163 1469.03 L705.163 1465.19 L709.375 1465.19 Q712.825 1465.19 714.653 1463.82 Q716.482 1462.43 716.482 1459.84 Q716.482 1457.18 714.584 1455.77 Q712.709 1454.33 709.19 1454.33 Q707.269 1454.33 705.07 1454.75 Q702.871 1455.16 700.232 1456.04 L700.232 1451.88 Q702.894 1451.14 705.209 1450.77 Q707.547 1450.39 709.607 1450.39 Q714.931 1450.39 718.033 1452.83 Q721.135 1455.23 721.135 1459.35 Q721.135 1462.22 719.491 1464.21 Q717.848 1466.18 714.815 1466.95 Z" fill="#000000" fill-rule="nonzero" fill-opacity="1" /><path clip-path="url(#clip450)" d="M1304.48 1454.1 Q1300.87 1454.1 1299.04 1457.66 Q1297.24 1461.2 1297.24 1468.33 Q1297.24 1475.44 1299.04 1479.01 Q1300.87 1482.55 1304.48 1482.55 Q1308.12 1482.55 1309.92 1479.01 Q1311.75 1475.44 1311.75 1468.33 Q1311.75 1461.2 1309.92 1457.66 Q1308.12 1454.1 1304.48 1454.1 M1304.48 1450.39 Q1310.29 1450.39 1313.35 1455 Q1316.43 1459.58 1316.43 1468.33 Q1316.43 1477.06 1313.35 1481.67 Q1310.29 1486.25 1304.48 1486.25 Q1298.67 1486.25 1295.59 1481.67 Q1292.54 1477.06 1292.54 1468.33 Q1292.54 1459.58 1295.59 1455 Q1298.67 1450.39 1304.48 1450.39 Z" fill="#000000" fill-rule="nonzero" fill-opacity="1" /><path clip-path="url(#clip450)" d="M1921.8 1466.95 Q1925.16 1467.66 1927.03 1469.93 Q1928.93 1472.2 1928.93 1475.53 Q1928.93 1480.65 1925.41 1483.45 Q1921.89 1486.25 1915.41 1486.25 Q1913.23 1486.25 1910.92 1485.81 Q1908.63 1485.39 1906.17 1484.54 L1906.17 1480.02 Q1908.12 1481.16 1910.43 1481.74 Q1912.75 1482.32 1915.27 1482.32 Q1919.67 1482.32 1921.96 1480.58 Q1924.28 1478.84 1924.28 1475.53 Q1924.28 1472.48 1922.12 1470.77 Q1919.99 1469.03 1916.17 1469.03 L1912.15 1469.03 L1912.15 1465.19 L1916.36 1465.19 Q1919.81 1465.19 1921.64 1463.82 Q1923.47 1462.43 1923.47 1459.84 Q1923.47 1457.18 1921.57 1455.77 Q1919.69 1454.33 1916.17 1454.33 Q1914.25 1454.33 1912.05 1454.75 Q1909.86 1455.16 1907.22 1456.04 L1907.22 1451.88 Q1909.88 1451.14 1912.19 1450.77 Q1914.53 1450.39 1916.59 1450.39 Q1921.92 1450.39 1925.02 1452.83 Q1928.12 1455.23 1928.12 1459.35 Q1928.12 1462.22 1926.48 1464.21 Q1924.83 1466.18 1921.8 1466.95 Z" fill="#000000" fill-rule="nonzero" fill-opacity="1" /><path clip-path="url(#clip450)" d="M1321.1 1532.4 L1308.21 1549.74 L1321.77 1568.04 L1314.86 1568.04 L1304.48 1554.04 L1294.11 1568.04 L1287.2 1568.04 L1301.04 1549.39 L1288.38 1532.4 L1295.28 1532.4 L1304.74 1545.1 L1314.19 1532.4 L1321.1 1532.4 Z" fill="#000000" fill-rule="nonzero" fill-opacity="1" /><polyline clip-path="url(#clip452)" style="stroke:#000000; stroke-linecap:round; stroke-linejoin:round; stroke-width:2; stroke-opacity:0.1; fill:none" points="546.319,1284.22 2062.65,1284.22 "/>
<polyline clip-path="url(#clip452)" style="stroke:#000000; stroke-linecap:round; stroke-linejoin:round; stroke-width:2; stroke-opacity:0.1; fill:none" points="546.319,875.504 2062.65,875.504 "/>
<polyline clip-path="url(#clip452)" style="stroke:#000000; stroke-linecap:round; stroke-linejoin:round; stroke-width:2; stroke-opacity:0.1; fill:none" points="546.319,671.148 2062.65,671.148 "/>
<polyline clip-path="url(#clip452)" style="stroke:#000000; stroke-linecap:round; stroke-linejoin:round; stroke-width:2; stroke-opacity:0.1; fill:none" points="546.319,262.435 2062.65,262.435 "/>
<polyline clip-path="url(#clip450)" style="stroke:#000000; stroke-linecap:round; stroke-linejoin:round; stroke-width:4; stroke-opacity:1; fill:none" points="546.319,1423.18 546.319,123.472 "/>
<polyline clip-path="url(#clip450)" style="stroke:#000000; stroke-linecap:round; stroke-linejoin:round; stroke-width:4; stroke-opacity:1; fill:none" points="546.319,1284.22 559.987,1284.22 "/>
<polyline clip-path="url(#clip450)" style="stroke:#000000; stroke-linecap:round; stroke-linejoin:round; stroke-width:4; stroke-opacity:1; fill:none" points="546.319,875.504 559.987,875.504 "/>
<polyline clip-path="url(#clip450)" style="stroke:#000000; stroke-linecap:round; stroke-linejoin:round; stroke-width:4; stroke-opacity:1; fill:none" points="546.319,671.148 559.987,671.148 "/>
<polyline clip-path="url(#clip450)" style="stroke:#000000; stroke-linecap:round; stroke-linejoin:round; stroke-width:4; stroke-opacity:1; fill:none" points="546.319,262.435 559.987,262.435 "/>
<path clip-path="url(#clip450)" d="M404.371 1284.67 L434.047 1284.67 L434.047 1288.6 L404.371 1288.6 L404.371 1284.67 Z" fill="#000000" fill-rule="nonzero" fill-opacity="1" /><path clip-path="url(#clip450)" d="M448.167 1297.56 L464.486 1297.56 L464.486 1301.5 L442.542 1301.5 L442.542 1297.56 Q445.204 1294.81 449.787 1290.18 Q454.394 1285.53 455.574 1284.18 Q457.82 1281.66 458.699 1279.92 Q459.602 1278.16 459.602 1276.47 Q459.602 1273.72 457.658 1271.98 Q455.736 1270.25 452.635 1270.25 Q450.436 1270.25 447.982 1271.01 Q445.551 1271.78 442.774 1273.33 L442.774 1268.6 Q445.598 1267.47 448.051 1266.89 Q450.505 1266.31 452.542 1266.31 Q457.912 1266.31 461.107 1269 Q464.301 1271.68 464.301 1276.17 Q464.301 1278.3 463.491 1280.22 Q462.704 1282.12 460.597 1284.72 Q460.019 1285.39 456.917 1288.6 Q453.815 1291.8 448.167 1297.56 Z" fill="#000000" fill-rule="nonzero" fill-opacity="1" /><path clip-path="url(#clip450)" d="M474.301 1295.62 L479.185 1295.62 L479.185 1301.5 L474.301 1301.5 L474.301 1295.62 Z" fill="#000000" fill-rule="nonzero" fill-opacity="1" /><path clip-path="url(#clip450)" d="M489.417 1266.94 L507.773 1266.94 L507.773 1270.87 L493.699 1270.87 L493.699 1279.34 Q494.718 1279 495.736 1278.84 Q496.755 1278.65 497.773 1278.65 Q503.56 1278.65 506.94 1281.82 Q510.319 1284.99 510.319 1290.41 Q510.319 1295.99 506.847 1299.09 Q503.375 1302.17 497.056 1302.17 Q494.88 1302.17 492.611 1301.8 Q490.366 1301.43 487.958 1300.69 L487.958 1295.99 Q490.042 1297.12 492.264 1297.68 Q494.486 1298.23 496.963 1298.23 Q500.968 1298.23 503.306 1296.13 Q505.644 1294.02 505.644 1290.41 Q505.644 1286.8 503.306 1284.69 Q500.968 1282.59 496.963 1282.59 Q495.088 1282.59 493.213 1283 Q491.361 1283.42 489.417 1284.3 L489.417 1266.94 Z" fill="#000000" fill-rule="nonzero" fill-opacity="1" /><path clip-path="url(#clip450)" d="M404.371 875.956 L434.047 875.956 L434.047 879.891 L404.371 879.891 L404.371 875.956 Z" fill="#000000" fill-rule="nonzero" fill-opacity="1" /><path clip-path="url(#clip450)" d="M454.139 861.303 Q450.528 861.303 448.699 864.868 Q446.894 868.409 446.894 875.539 Q446.894 882.645 448.699 886.21 Q450.528 889.752 454.139 889.752 Q457.773 889.752 459.579 886.21 Q461.408 882.645 461.408 875.539 Q461.408 868.409 459.579 864.868 Q457.773 861.303 454.139 861.303 M454.139 857.599 Q459.949 857.599 463.005 862.206 Q466.084 866.789 466.084 875.539 Q466.084 884.266 463.005 888.872 Q459.949 893.456 454.139 893.456 Q448.329 893.456 445.25 888.872 Q442.195 884.266 442.195 875.539 Q442.195 866.789 445.25 862.206 Q448.329 857.599 454.139 857.599 Z" fill="#000000" fill-rule="nonzero" fill-opacity="1" /><path clip-path="url(#clip450)" d="M474.301 886.905 L479.185 886.905 L479.185 892.784 L474.301 892.784 L474.301 886.905 Z" fill="#000000" fill-rule="nonzero" fill-opacity="1" /><path clip-path="url(#clip450)" d="M489.417 858.224 L507.773 858.224 L507.773 862.159 L493.699 862.159 L493.699 870.632 Q494.718 870.284 495.736 870.122 Q496.755 869.937 497.773 869.937 Q503.56 869.937 506.94 873.108 Q510.319 876.28 510.319 881.696 Q510.319 887.275 506.847 890.377 Q503.375 893.456 497.056 893.456 Q494.88 893.456 492.611 893.085 Q490.366 892.715 487.958 891.974 L487.958 887.275 Q490.042 888.409 492.264 888.965 Q494.486 889.52 496.963 889.52 Q500.968 889.52 503.306 887.414 Q505.644 885.307 505.644 881.696 Q505.644 878.085 503.306 875.979 Q500.968 873.872 496.963 873.872 Q495.088 873.872 493.213 874.289 Q491.361 874.706 489.417 875.585 L489.417 858.224 Z" fill="#000000" fill-rule="nonzero" fill-opacity="1" /><path clip-path="url(#clip450)" d="M454.139 656.946 Q450.528 656.946 448.699 660.511 Q446.894 664.053 446.894 671.182 Q446.894 678.289 448.699 681.854 Q450.528 685.395 454.139 685.395 Q457.773 685.395 459.579 681.854 Q461.408 678.289 461.408 671.182 Q461.408 664.053 459.579 660.511 Q457.773 656.946 454.139 656.946 M454.139 653.243 Q459.949 653.243 463.005 657.849 Q466.084 662.432 466.084 671.182 Q466.084 679.909 463.005 684.516 Q459.949 689.099 454.139 689.099 Q448.329 689.099 445.25 684.516 Q442.195 679.909 442.195 671.182 Q442.195 662.432 445.25 657.849 Q448.329 653.243 454.139 653.243 Z" fill="#000000" fill-rule="nonzero" fill-opacity="1" /><path clip-path="url(#clip450)" d="M474.301 682.548 L479.185 682.548 L479.185 688.428 L474.301 688.428 L474.301 682.548 Z" fill="#000000" fill-rule="nonzero" fill-opacity="1" /><path clip-path="url(#clip450)" d="M489.417 653.868 L507.773 653.868 L507.773 657.803 L493.699 657.803 L493.699 666.275 Q494.718 665.928 495.736 665.766 Q496.755 665.581 497.773 665.581 Q503.56 665.581 506.94 668.752 Q510.319 671.923 510.319 677.34 Q510.319 682.918 506.847 686.02 Q503.375 689.099 497.056 689.099 Q494.88 689.099 492.611 688.729 Q490.366 688.358 487.958 687.618 L487.958 682.918 Q490.042 684.053 492.264 684.608 Q494.486 685.164 496.963 685.164 Q500.968 685.164 503.306 683.057 Q505.644 680.951 505.644 677.34 Q505.644 673.729 503.306 671.622 Q500.968 669.516 496.963 669.516 Q495.088 669.516 493.213 669.932 Q491.361 670.349 489.417 671.229 L489.417 653.868 Z" fill="#000000" fill-rule="nonzero" fill-opacity="1" /><path clip-path="url(#clip450)" d="M448.167 275.779 L464.486 275.779 L464.486 279.715 L442.542 279.715 L442.542 275.779 Q445.204 273.025 449.787 268.395 Q454.394 263.742 455.574 262.4 Q457.82 259.877 458.699 258.141 Q459.602 256.381 459.602 254.692 Q459.602 251.937 457.658 250.201 Q455.736 248.465 452.635 248.465 Q450.436 248.465 447.982 249.229 Q445.551 249.993 442.774 251.543 L442.774 246.821 Q445.598 245.687 448.051 245.108 Q450.505 244.53 452.542 244.53 Q457.912 244.53 461.107 247.215 Q464.301 249.9 464.301 254.391 Q464.301 256.52 463.491 258.442 Q462.704 260.34 460.597 262.932 Q460.019 263.604 456.917 266.821 Q453.815 270.016 448.167 275.779 Z" fill="#000000" fill-rule="nonzero" fill-opacity="1" /><path clip-path="url(#clip450)" d="M474.301 273.835 L479.185 273.835 L479.185 279.715 L474.301 279.715 L474.301 273.835 Z" fill="#000000" fill-rule="nonzero" fill-opacity="1" /><path clip-path="url(#clip450)" d="M489.417 245.155 L507.773 245.155 L507.773 249.09 L493.699 249.09 L493.699 257.562 Q494.718 257.215 495.736 257.053 Q496.755 256.867 497.773 256.867 Q503.56 256.867 506.94 260.039 Q510.319 263.21 510.319 268.627 Q510.319 274.205 506.847 277.307 Q503.375 280.386 497.056 280.386 Q494.88 280.386 492.611 280.016 Q490.366 279.645 487.958 278.904 L487.958 274.205 Q490.042 275.34 492.264 275.895 Q494.486 276.451 496.963 276.451 Q500.968 276.451 503.306 274.344 Q505.644 272.238 505.644 268.627 Q505.644 265.016 503.306 262.909 Q500.968 260.803 496.963 260.803 Q495.088 260.803 493.213 261.219 Q491.361 261.636 489.417 262.516 L489.417 245.155 Z" fill="#000000" fill-rule="nonzero" fill-opacity="1" /><path clip-path="url(#clip450)" d="M357.425 771.639 Q363.791 774.122 365.732 776.477 Q367.674 778.832 367.674 782.779 L367.674 787.458 L362.772 787.458 L362.772 784.02 Q362.772 781.601 361.626 780.265 Q360.481 778.928 356.216 777.305 L353.542 776.254 L318.467 790.673 L318.467 784.466 L346.349 773.326 L318.467 762.186 L318.467 755.979 L357.425 771.639 Z" fill="#000000" fill-rule="nonzero" fill-opacity="1" /><path clip-path="url(#clip450)" d="M905.711 32.4315 Q899.716 32.4315 896.232 37.1306 Q892.748 41.7891 892.748 49.9314 Q892.748 58.0738 896.192 62.7728 Q899.675 67.4314 905.711 67.4314 Q911.666 67.4314 915.15 62.7323 Q918.634 58.0333 918.634 49.9314 Q918.634 41.8701 915.15 37.1711 Q911.666 32.4315 905.711 32.4315 M905.711 26.1121 Q915.433 26.1121 920.983 32.4315 Q926.533 38.7509 926.533 49.9314 Q926.533 61.0714 920.983 67.4314 Q915.433 73.7508 905.711 73.7508 Q895.949 73.7508 890.399 67.4314 Q884.89 61.0714 884.89 49.9314 Q884.89 38.7509 890.399 32.4315 Q895.949 26.1121 905.711 26.1121 Z" fill="#000000" fill-rule="nonzero" fill-opacity="1" /><path clip-path="url(#clip450)" d="M961.857 9.54393 L961.857 15.7418 L954.727 15.7418 Q950.717 15.7418 949.137 17.3622 Q947.598 18.9825 947.598 23.1955 L947.598 27.2059 L959.872 27.2059 L959.872 32.9987 L947.598 32.9987 L947.598 72.576 L940.103 72.576 L940.103 32.9987 L932.974 32.9987 L932.974 27.2059 L940.103 27.2059 L940.103 24.0462 Q940.103 16.471 943.628 13.0277 Q947.152 9.54393 954.808 9.54393 L961.857 9.54393 Z" fill="#000000" fill-rule="nonzero" fill-opacity="1" /><path clip-path="url(#clip450)" d="M991.064 9.54393 L991.064 15.7418 L983.934 15.7418 Q979.924 15.7418 978.344 17.3622 Q976.805 18.9825 976.805 23.1955 L976.805 27.2059 L989.079 27.2059 L989.079 32.9987 L976.805 32.9987 L976.805 72.576 L969.31 72.576 L969.31 32.9987 L962.181 32.9987 L962.181 27.2059 L969.31 27.2059 L969.31 24.0462 Q969.31 16.471 972.835 13.0277 Q976.359 9.54393 984.015 9.54393 L991.064 9.54393 Z" fill="#000000" fill-rule="nonzero" fill-opacity="1" /><path clip-path="url(#clip450)" d="M1026.23 28.5427 L1026.23 35.5912 Q1023.07 33.9709 1019.66 33.1607 Q1016.26 32.3505 1012.61 32.3505 Q1007.06 32.3505 1004.27 34.0519 Q1001.52 35.7533 1001.52 39.156 Q1001.52 41.7486 1003.5 43.2475 Q1005.49 44.7058 1011.48 46.0426 L1014.03 46.6097 Q1021.97 48.3111 1025.29 51.4303 Q1028.66 54.509 1028.66 60.0587 Q1028.66 66.3781 1023.63 70.0644 Q1018.65 73.7508 1009.9 73.7508 Q1006.25 73.7508 1002.28 73.0216 Q998.355 72.3329 993.98 70.9151 L993.98 63.2184 Q998.112 65.3654 1002.12 66.4591 Q1006.13 67.5124 1010.06 67.5124 Q1015.33 67.5124 1018.16 65.73 Q1021 63.9071 1021 60.6258 Q1021 57.5877 1018.93 55.9673 Q1016.91 54.3469 1009.98 52.8481 L1007.39 52.2405 Q1000.46 50.7821 997.383 47.7845 Q994.305 44.7463 994.305 39.4801 Q994.305 33.0797 998.842 29.5959 Q1003.38 26.1121 1011.72 26.1121 Q1015.86 26.1121 1019.5 26.7198 Q1023.15 27.3274 1026.23 28.5427 Z" fill="#000000" fill-rule="nonzero" fill-opacity="1" /><path clip-path="url(#clip450)" d="M1079.33 48.0275 L1079.33 51.6733 L1045.06 51.6733 Q1045.55 59.3701 1049.68 63.421 Q1053.85 67.4314 1061.27 67.4314 Q1065.56 67.4314 1069.57 66.3781 Q1073.62 65.3249 1077.59 63.2184 L1077.59 70.267 Q1073.58 71.9684 1069.37 72.8596 Q1065.15 73.7508 1060.82 73.7508 Q1049.96 73.7508 1043.6 67.4314 Q1037.28 61.1119 1037.28 50.3365 Q1037.28 39.1965 1043.28 32.6746 Q1049.32 26.1121 1059.52 26.1121 Q1068.68 26.1121 1073.99 32.0264 Q1079.33 37.9003 1079.33 48.0275 M1071.88 45.84 Q1071.8 39.7232 1068.44 36.0774 Q1065.11 32.4315 1059.61 32.4315 Q1053.37 32.4315 1049.6 35.9558 Q1045.87 39.4801 1045.31 45.8805 L1071.88 45.84 Z" fill="#000000" fill-rule="nonzero" fill-opacity="1" /><path clip-path="url(#clip450)" d="M1098.94 14.324 L1098.94 27.2059 L1114.29 27.2059 L1114.29 32.9987 L1098.94 32.9987 L1098.94 57.6282 Q1098.94 63.1779 1100.44 64.7578 Q1101.98 66.3376 1106.64 66.3376 L1114.29 66.3376 L1114.29 72.576 L1106.64 72.576 Q1098.01 72.576 1094.73 69.3758 Q1091.45 66.1351 1091.45 57.6282 L1091.45 32.9987 L1085.98 32.9987 L1085.98 27.2059 L1091.45 27.2059 L1091.45 14.324 L1098.94 14.324 Z" fill="#000000" fill-rule="nonzero" fill-opacity="1" /><path clip-path="url(#clip450)" d="M1153.02 28.5427 L1153.02 35.5912 Q1149.86 33.9709 1146.46 33.1607 Q1143.05 32.3505 1139.41 32.3505 Q1133.86 32.3505 1131.06 34.0519 Q1128.31 35.7533 1128.31 39.156 Q1128.31 41.7486 1130.29 43.2475 Q1132.28 44.7058 1138.27 46.0426 L1140.83 46.6097 Q1148.77 48.3111 1152.09 51.4303 Q1155.45 54.509 1155.45 60.0587 Q1155.45 66.3781 1150.43 70.0644 Q1145.44 73.7508 1136.69 73.7508 Q1133.05 73.7508 1129.08 73.0216 Q1125.15 72.3329 1120.77 70.9151 L1120.77 63.2184 Q1124.91 65.3654 1128.92 66.4591 Q1132.93 67.5124 1136.86 67.5124 Q1142.12 67.5124 1144.96 65.73 Q1147.79 63.9071 1147.79 60.6258 Q1147.79 57.5877 1145.73 55.9673 Q1143.7 54.3469 1136.77 52.8481 L1134.18 52.2405 Q1127.26 50.7821 1124.18 47.7845 Q1121.1 44.7463 1121.1 39.4801 Q1121.1 33.0797 1125.63 29.5959 Q1130.17 26.1121 1138.52 26.1121 Q1142.65 26.1121 1146.29 26.7198 Q1149.94 27.3274 1153.02 28.5427 Z" fill="#000000" fill-rule="nonzero" fill-opacity="1" /><path clip-path="url(#clip450)" d="M1211.6 9.62495 Q1206.17 18.942 1203.53 28.0566 Q1200.9 37.1711 1200.9 46.5287 Q1200.9 55.8863 1203.53 65.0818 Q1206.21 74.2369 1211.6 83.5134 L1205.11 83.5134 Q1199.04 73.9938 1196 64.7983 Q1193 55.6027 1193 46.5287 Q1193 37.4952 1196 28.3401 Q1199 19.1851 1205.11 9.62495 L1211.6 9.62495 Z" fill="#000000" fill-rule="nonzero" fill-opacity="1" /><path clip-path="url(#clip450)" d="M1244.61 17.4837 Q1238.29 17.4837 1235.09 23.7221 Q1231.93 29.92 1231.93 42.3968 Q1231.93 54.833 1235.09 61.0714 Q1238.29 67.2693 1244.61 67.2693 Q1250.97 67.2693 1254.13 61.0714 Q1257.33 54.833 1257.33 42.3968 Q1257.33 29.92 1254.13 23.7221 Q1250.97 17.4837 1244.61 17.4837 M1244.61 11.0023 Q1254.78 11.0023 1260.12 19.0636 Q1265.51 27.0843 1265.51 42.3968 Q1265.51 57.6687 1260.12 65.73 Q1254.78 73.7508 1244.61 73.7508 Q1234.44 73.7508 1229.05 65.73 Q1223.71 57.6687 1223.71 42.3968 Q1223.71 27.0843 1229.05 19.0636 Q1234.44 11.0023 1244.61 11.0023 Z" fill="#000000" fill-rule="nonzero" fill-opacity="1" /><path clip-path="url(#clip450)" d="M1279.89 62.2867 L1288.44 62.2867 L1288.44 72.576 L1279.89 72.576 L1279.89 62.2867 Z" fill="#000000" fill-rule="nonzero" fill-opacity="1" /><path clip-path="url(#clip450)" d="M1323.76 17.4837 Q1317.45 17.4837 1314.24 23.7221 Q1311.09 29.92 1311.09 42.3968 Q1311.09 54.833 1314.24 61.0714 Q1317.45 67.2693 1323.76 67.2693 Q1330.12 67.2693 1333.28 61.0714 Q1336.48 54.833 1336.48 42.3968 Q1336.48 29.92 1333.28 23.7221 Q1330.12 17.4837 1323.76 17.4837 M1323.76 11.0023 Q1333.93 11.0023 1339.28 19.0636 Q1344.67 27.0843 1344.67 42.3968 Q1344.67 57.6687 1339.28 65.73 Q1333.93 73.7508 1323.76 73.7508 Q1313.6 73.7508 1308.21 65.73 Q1302.86 57.6687 1302.86 42.3968 Q1302.86 27.0843 1308.21 19.0636 Q1313.6 11.0023 1323.76 11.0023 Z" fill="#000000" fill-rule="nonzero" fill-opacity="1" /><path clip-path="url(#clip450)" d="M1380.96 9.54393 L1380.96 15.7418 L1373.83 15.7418 Q1369.82 15.7418 1368.24 17.3622 Q1366.7 18.9825 1366.7 23.1955 L1366.7 27.2059 L1378.98 27.2059 L1378.98 32.9987 L1366.7 32.9987 L1366.7 72.576 L1359.21 72.576 L1359.21 32.9987 L1352.08 32.9987 L1352.08 27.2059 L1359.21 27.2059 L1359.21 24.0462 Q1359.21 16.471 1362.73 13.0277 Q1366.26 9.54393 1373.91 9.54393 L1380.96 9.54393 Z" fill="#000000" fill-rule="nonzero" fill-opacity="1" /><path clip-path="url(#clip450)" d="M1405.75 17.4837 Q1399.44 17.4837 1396.24 23.7221 Q1393.08 29.92 1393.08 42.3968 Q1393.08 54.833 1396.24 61.0714 Q1399.44 67.2693 1405.75 67.2693 Q1412.11 67.2693 1415.27 61.0714 Q1418.47 54.833 1418.47 42.3968 Q1418.47 29.92 1415.27 23.7221 Q1412.11 17.4837 1405.75 17.4837 M1405.75 11.0023 Q1415.92 11.0023 1421.27 19.0636 Q1426.66 27.0843 1426.66 42.3968 Q1426.66 57.6687 1421.27 65.73 Q1415.92 73.7508 1405.75 73.7508 Q1395.59 73.7508 1390.2 65.73 Q1384.85 57.6687 1384.85 42.3968 Q1384.85 27.0843 1390.2 19.0636 Q1395.59 11.0023 1405.75 11.0023 Z" fill="#000000" fill-rule="nonzero" fill-opacity="1" /><path clip-path="url(#clip450)" d="M1441.89 62.2867 L1450.44 62.2867 L1450.44 69.2543 L1443.79 82.2172 L1438.57 82.2172 L1441.89 69.2543 L1441.89 62.2867 Z" fill="#000000" fill-rule="nonzero" fill-opacity="1" /><path clip-path="url(#clip450)" d="M1511.28 17.4837 Q1504.96 17.4837 1501.76 23.7221 Q1498.6 29.92 1498.6 42.3968 Q1498.6 54.833 1501.76 61.0714 Q1504.96 67.2693 1511.28 67.2693 Q1517.64 67.2693 1520.8 61.0714 Q1524 54.833 1524 42.3968 Q1524 29.92 1520.8 23.7221 Q1517.64 17.4837 1511.28 17.4837 M1511.28 11.0023 Q1521.45 11.0023 1526.8 19.0636 Q1532.18 27.0843 1532.18 42.3968 Q1532.18 57.6687 1526.8 65.73 Q1521.45 73.7508 1511.28 73.7508 Q1501.11 73.7508 1495.73 65.73 Q1490.38 57.6687 1490.38 42.3968 Q1490.38 27.0843 1495.73 19.0636 Q1501.11 11.0023 1511.28 11.0023 Z" fill="#000000" fill-rule="nonzero" fill-opacity="1" /><path clip-path="url(#clip450)" d="M1546.56 62.2867 L1555.11 62.2867 L1555.11 72.576 L1546.56 72.576 L1546.56 62.2867 Z" fill="#000000" fill-rule="nonzero" fill-opacity="1" /><path clip-path="url(#clip450)" d="M1590.44 17.4837 Q1584.12 17.4837 1580.92 23.7221 Q1577.76 29.92 1577.76 42.3968 Q1577.76 54.833 1580.92 61.0714 Q1584.12 67.2693 1590.44 67.2693 Q1596.8 67.2693 1599.96 61.0714 Q1603.16 54.833 1603.16 42.3968 Q1603.16 29.92 1599.96 23.7221 Q1596.8 17.4837 1590.44 17.4837 M1590.44 11.0023 Q1600.6 11.0023 1605.95 19.0636 Q1611.34 27.0843 1611.34 42.3968 Q1611.34 57.6687 1605.95 65.73 Q1600.6 73.7508 1590.44 73.7508 Q1580.27 73.7508 1574.88 65.73 Q1569.53 57.6687 1569.53 42.3968 Q1569.53 27.0843 1574.88 19.0636 Q1580.27 11.0023 1590.44 11.0023 Z" fill="#000000" fill-rule="nonzero" fill-opacity="1" /><path clip-path="url(#clip450)" d="M1647.63 9.54393 L1647.63 15.7418 L1640.5 15.7418 Q1636.49 15.7418 1634.91 17.3622 Q1633.38 18.9825 1633.38 23.1955 L1633.38 27.2059 L1645.65 27.2059 L1645.65 32.9987 L1633.38 32.9987 L1633.38 72.576 L1625.88 72.576 L1625.88 32.9987 L1618.75 32.9987 L1618.75 27.2059 L1625.88 27.2059 L1625.88 24.0462 Q1625.88 16.471 1629.41 13.0277 Q1632.93 9.54393 1640.59 9.54393 L1647.63 9.54393 Z" fill="#000000" fill-rule="nonzero" fill-opacity="1" /><path clip-path="url(#clip450)" d="M1672.43 17.4837 Q1666.11 17.4837 1662.91 23.7221 Q1659.75 29.92 1659.75 42.3968 Q1659.75 54.833 1662.91 61.0714 Q1666.11 67.2693 1672.43 67.2693 Q1678.79 67.2693 1681.95 61.0714 Q1685.15 54.833 1685.15 42.3968 Q1685.15 29.92 1681.95 23.7221 Q1678.79 17.4837 1672.43 17.4837 M1672.43 11.0023 Q1682.59 11.0023 1687.94 19.0636 Q1693.33 27.0843 1693.33 42.3968 Q1693.33 57.6687 1687.94 65.73 Q1682.59 73.7508 1672.43 73.7508 Q1662.26 73.7508 1656.87 65.73 Q1651.52 57.6687 1651.52 42.3968 Q1651.52 27.0843 1656.87 19.0636 Q1662.26 11.0023 1672.43 11.0023 Z" fill="#000000" fill-rule="nonzero" fill-opacity="1" /><path clip-path="url(#clip450)" d="M1705.48 9.62495 L1711.96 9.62495 Q1718.04 19.1851 1721.04 28.3401 Q1724.07 37.4952 1724.07 46.5287 Q1724.07 55.6027 1721.04 64.7983 Q1718.04 73.9938 1711.96 83.5134 L1705.48 83.5134 Q1710.87 74.2369 1713.5 65.0818 Q1716.18 55.8863 1716.18 46.5287 Q1716.18 37.1711 1713.5 28.0566 Q1710.87 18.942 1705.48 9.62495 Z" fill="#000000" fill-rule="nonzero" fill-opacity="1" /><circle clip-path="url(#clip452)" cx="691.413" cy="1284.22" r="14.4" fill="#009af9" fill-rule="evenodd" fill-opacity="1" stroke="none"/>
<circle clip-path="url(#clip452)" cx="895.769" cy="1284.22" r="14.4" fill="#009af9" fill-rule="evenodd" fill-opacity="1" stroke="none"/>
<circle clip-path="url(#clip452)" cx="1100.13" cy="1284.22" r="14.4" fill="#009af9" fill-rule="evenodd" fill-opacity="1" stroke="none"/>
<circle clip-path="url(#clip452)" cx="1304.48" cy="1284.22" r="14.4" fill="#009af9" fill-rule="evenodd" fill-opacity="1" stroke="none"/>
<circle clip-path="url(#clip452)" cx="1508.84" cy="1284.22" r="14.4" fill="#009af9" fill-rule="evenodd" fill-opacity="1" stroke="none"/>
<circle clip-path="url(#clip452)" cx="1713.2" cy="1284.22" r="14.4" fill="#009af9" fill-rule="evenodd" fill-opacity="1" stroke="none"/>
<circle clip-path="url(#clip452)" cx="1917.55" cy="1284.22" r="14.4" fill="#009af9" fill-rule="evenodd" fill-opacity="1" stroke="none"/>
<circle clip-path="url(#clip452)" cx="691.413" cy="1079.86" r="14.4" fill="#e26f46" fill-rule="evenodd" fill-opacity="1" stroke="none"/>
<circle clip-path="url(#clip452)" cx="895.769" cy="1079.86" r="14.4" fill="#e26f46" fill-rule="evenodd" fill-opacity="1" stroke="none"/>
<circle clip-path="url(#clip452)" cx="1100.13" cy="1079.86" r="14.4" fill="#e26f46" fill-rule="evenodd" fill-opacity="1" stroke="none"/>
<circle clip-path="url(#clip452)" cx="1304.48" cy="1079.86" r="14.4" fill="#e26f46" fill-rule="evenodd" fill-opacity="1" stroke="none"/>
<circle clip-path="url(#clip452)" cx="1508.84" cy="1079.86" r="14.4" fill="#e26f46" fill-rule="evenodd" fill-opacity="1" stroke="none"/>
<circle clip-path="url(#clip452)" cx="1713.2" cy="1079.86" r="14.4" fill="#e26f46" fill-rule="evenodd" fill-opacity="1" stroke="none"/>
<circle clip-path="url(#clip452)" cx="1917.55" cy="1079.86" r="14.4" fill="#e26f46" fill-rule="evenodd" fill-opacity="1" stroke="none"/>
<circle clip-path="url(#clip452)" cx="691.413" cy="875.504" r="14.4" fill="#3da44d" fill-rule="evenodd" fill-opacity="1" stroke="none"/>
<circle clip-path="url(#clip452)" cx="895.769" cy="875.504" r="14.4" fill="#3da44d" fill-rule="evenodd" fill-opacity="1" stroke="none"/>
<circle clip-path="url(#clip452)" cx="1100.13" cy="875.504" r="14.4" fill="#3da44d" fill-rule="evenodd" fill-opacity="1" stroke="none"/>
<circle clip-path="url(#clip452)" cx="1304.48" cy="875.504" r="14.4" fill="#3da44d" fill-rule="evenodd" fill-opacity="1" stroke="none"/>
<circle clip-path="url(#clip452)" cx="1508.84" cy="875.504" r="14.4" fill="#3da44d" fill-rule="evenodd" fill-opacity="1" stroke="none"/>
<circle clip-path="url(#clip452)" cx="1713.2" cy="875.504" r="14.4" fill="#3da44d" fill-rule="evenodd" fill-opacity="1" stroke="none"/>
<circle clip-path="url(#clip452)" cx="1917.55" cy="875.504" r="14.4" fill="#3da44d" fill-rule="evenodd" fill-opacity="1" stroke="none"/>
<circle clip-path="url(#clip452)" cx="691.413" cy="671.148" r="14.4" fill="#c271d2" fill-rule="evenodd" fill-opacity="1" stroke="none"/>
<circle clip-path="url(#clip452)" cx="895.769" cy="671.148" r="14.4" fill="#c271d2" fill-rule="evenodd" fill-opacity="1" stroke="none"/>
<circle clip-path="url(#clip452)" cx="1100.13" cy="671.148" r="14.4" fill="#c271d2" fill-rule="evenodd" fill-opacity="1" stroke="none"/>
<circle clip-path="url(#clip452)" cx="1304.48" cy="671.148" r="14.4" fill="#c271d2" fill-rule="evenodd" fill-opacity="1" stroke="none"/>
<circle clip-path="url(#clip452)" cx="1508.84" cy="671.148" r="14.4" fill="#c271d2" fill-rule="evenodd" fill-opacity="1" stroke="none"/>
<circle clip-path="url(#clip452)" cx="1713.2" cy="671.148" r="14.4" fill="#c271d2" fill-rule="evenodd" fill-opacity="1" stroke="none"/>
<circle clip-path="url(#clip452)" cx="1917.55" cy="671.148" r="14.4" fill="#c271d2" fill-rule="evenodd" fill-opacity="1" stroke="none"/>
<circle clip-path="url(#clip452)" cx="691.413" cy="466.791" r="14.4" fill="#ac8d18" fill-rule="evenodd" fill-opacity="1" stroke="none"/>
<circle clip-path="url(#clip452)" cx="895.769" cy="466.791" r="14.4" fill="#ac8d18" fill-rule="evenodd" fill-opacity="1" stroke="none"/>
<circle clip-path="url(#clip452)" cx="1100.13" cy="466.791" r="14.4" fill="#ac8d18" fill-rule="evenodd" fill-opacity="1" stroke="none"/>
<circle clip-path="url(#clip452)" cx="1304.48" cy="466.791" r="14.4" fill="#ac8d18" fill-rule="evenodd" fill-opacity="1" stroke="none"/>
<circle clip-path="url(#clip452)" cx="1508.84" cy="466.791" r="14.4" fill="#ac8d18" fill-rule="evenodd" fill-opacity="1" stroke="none"/>
<circle clip-path="url(#clip452)" cx="1713.2" cy="466.791" r="14.4" fill="#ac8d18" fill-rule="evenodd" fill-opacity="1" stroke="none"/>
<circle clip-path="url(#clip452)" cx="1917.55" cy="466.791" r="14.4" fill="#ac8d18" fill-rule="evenodd" fill-opacity="1" stroke="none"/>
<circle clip-path="url(#clip452)" cx="691.413" cy="262.435" r="14.4" fill="#00a9ad" fill-rule="evenodd" fill-opacity="1" stroke="none"/>
<circle clip-path="url(#clip452)" cx="895.769" cy="262.435" r="14.4" fill="#00a9ad" fill-rule="evenodd" fill-opacity="1" stroke="none"/>
<circle clip-path="url(#clip452)" cx="1100.13" cy="262.435" r="14.4" fill="#00a9ad" fill-rule="evenodd" fill-opacity="1" stroke="none"/>
<circle clip-path="url(#clip452)" cx="1304.48" cy="262.435" r="14.4" fill="#00a9ad" fill-rule="evenodd" fill-opacity="1" stroke="none"/>
<circle clip-path="url(#clip452)" cx="1508.84" cy="262.435" r="14.4" fill="#00a9ad" fill-rule="evenodd" fill-opacity="1" stroke="none"/>
<circle clip-path="url(#clip452)" cx="1713.2" cy="262.435" r="14.4" fill="#00a9ad" fill-rule="evenodd" fill-opacity="1" stroke="none"/>
<circle clip-path="url(#clip452)" cx="1917.55" cy="262.435" r="14.4" fill="#00a9ad" fill-rule="evenodd" fill-opacity="1" stroke="none"/>
<polyline clip-path="url(#clip452)" style="stroke:#000000; stroke-linecap:round; stroke-linejoin:round; stroke-width:4; stroke-opacity:1; fill:none" points="589.234,1386.4 793.591,1386.4 793.591,1182.04 589.234,1182.04 589.234,1386.4 "/>
<polyline clip-path="url(#clip452)" style="stroke:#000000; stroke-linecap:round; stroke-linejoin:round; stroke-width:4; stroke-opacity:1; fill:none" points="793.591,1386.4 997.947,1386.4 997.947,1182.04 793.591,1182.04 793.591,1386.4 "/>
<polyline clip-path="url(#clip452)" style="stroke:#000000; stroke-linecap:round; stroke-linejoin:round; stroke-width:4; stroke-opacity:1; fill:none" points="997.947,1386.4 1202.3,1386.4 1202.3,1182.04 997.947,1182.04 997.947,1386.4 "/>
<polyline clip-path="url(#clip452)" style="stroke:#000000; stroke-linecap:round; stroke-linejoin:round; stroke-width:4; stroke-opacity:1; fill:none" points="1202.3,1386.4 1406.66,1386.4 1406.66,1182.04 1202.3,1182.04 1202.3,1386.4 "/>
<polyline clip-path="url(#clip452)" style="stroke:#000000; stroke-linecap:round; stroke-linejoin:round; stroke-width:4; stroke-opacity:1; fill:none" points="1406.66,1386.4 1611.02,1386.4 1611.02,1182.04 1406.66,1182.04 1406.66,1386.4 "/>
<polyline clip-path="url(#clip452)" style="stroke:#000000; stroke-linecap:round; stroke-linejoin:round; stroke-width:4; stroke-opacity:1; fill:none" points="1611.02,1386.4 1815.37,1386.4 1815.37,1182.04 1611.02,1182.04 1611.02,1386.4 "/>
<polyline clip-path="url(#clip452)" style="stroke:#000000; stroke-linecap:round; stroke-linejoin:round; stroke-width:4; stroke-opacity:1; fill:none" points="1815.37,1386.4 2019.73,1386.4 2019.73,1182.04 1815.37,1182.04 1815.37,1386.4 "/>
<polyline clip-path="url(#clip452)" style="stroke:#000000; stroke-linecap:round; stroke-linejoin:round; stroke-width:4; stroke-opacity:1; fill:none" points="589.234,1182.04 793.591,1182.04 793.591,977.683 589.234,977.683 589.234,1182.04 "/>
<polyline clip-path="url(#clip452)" style="stroke:#000000; stroke-linecap:round; stroke-linejoin:round; stroke-width:4; stroke-opacity:1; fill:none" points="793.591,1182.04 997.947,1182.04 997.947,977.683 793.591,977.683 793.591,1182.04 "/>
<polyline clip-path="url(#clip452)" style="stroke:#000000; stroke-linecap:round; stroke-linejoin:round; stroke-width:4; stroke-opacity:1; fill:none" points="997.947,1182.04 1202.3,1182.04 1202.3,977.683 997.947,977.683 997.947,1182.04 "/>
<polyline clip-path="url(#clip452)" style="stroke:#000000; stroke-linecap:round; stroke-linejoin:round; stroke-width:4; stroke-opacity:1; fill:none" points="1202.3,1182.04 1406.66,1182.04 1406.66,977.683 1202.3,977.683 1202.3,1182.04 "/>
<polyline clip-path="url(#clip452)" style="stroke:#000000; stroke-linecap:round; stroke-linejoin:round; stroke-width:4; stroke-opacity:1; fill:none" points="1406.66,1182.04 1611.02,1182.04 1611.02,977.683 1406.66,977.683 1406.66,1182.04 "/>
<polyline clip-path="url(#clip452)" style="stroke:#000000; stroke-linecap:round; stroke-linejoin:round; stroke-width:4; stroke-opacity:1; fill:none" points="1611.02,1182.04 1815.37,1182.04 1815.37,977.683 1611.02,977.683 1611.02,1182.04 "/>
<polyline clip-path="url(#clip452)" style="stroke:#000000; stroke-linecap:round; stroke-linejoin:round; stroke-width:4; stroke-opacity:1; fill:none" points="1815.37,1182.04 2019.73,1182.04 2019.73,977.683 1815.37,977.683 1815.37,1182.04 "/>
<polyline clip-path="url(#clip452)" style="stroke:#000000; stroke-linecap:round; stroke-linejoin:round; stroke-width:4; stroke-opacity:1; fill:none" points="589.234,977.683 793.591,977.683 793.591,773.326 589.234,773.326 589.234,977.683 "/>
<polyline clip-path="url(#clip452)" style="stroke:#000000; stroke-linecap:round; stroke-linejoin:round; stroke-width:4; stroke-opacity:1; fill:none" points="793.591,977.683 997.947,977.683 997.947,773.326 793.591,773.326 793.591,977.683 "/>
<polyline clip-path="url(#clip452)" style="stroke:#000000; stroke-linecap:round; stroke-linejoin:round; stroke-width:4; stroke-opacity:1; fill:none" points="997.947,977.683 1202.3,977.683 1202.3,773.326 997.947,773.326 997.947,977.683 "/>
<polyline clip-path="url(#clip452)" style="stroke:#000000; stroke-linecap:round; stroke-linejoin:round; stroke-width:4; stroke-opacity:1; fill:none" points="1202.3,977.683 1406.66,977.683 1406.66,773.326 1202.3,773.326 1202.3,977.683 "/>
<polyline clip-path="url(#clip452)" style="stroke:#000000; stroke-linecap:round; stroke-linejoin:round; stroke-width:4; stroke-opacity:1; fill:none" points="1406.66,977.683 1611.02,977.683 1611.02,773.326 1406.66,773.326 1406.66,977.683 "/>
<polyline clip-path="url(#clip452)" style="stroke:#000000; stroke-linecap:round; stroke-linejoin:round; stroke-width:4; stroke-opacity:1; fill:none" points="1611.02,977.683 1815.37,977.683 1815.37,773.326 1611.02,773.326 1611.02,977.683 "/>
<polyline clip-path="url(#clip452)" style="stroke:#000000; stroke-linecap:round; stroke-linejoin:round; stroke-width:4; stroke-opacity:1; fill:none" points="1815.37,977.683 2019.73,977.683 2019.73,773.326 1815.37,773.326 1815.37,977.683 "/>
<polyline clip-path="url(#clip452)" style="stroke:#000000; stroke-linecap:round; stroke-linejoin:round; stroke-width:4; stroke-opacity:1; fill:none" points="589.234,773.326 793.591,773.326 793.591,568.969 589.234,568.969 589.234,773.326 "/>
<polyline clip-path="url(#clip452)" style="stroke:#000000; stroke-linecap:round; stroke-linejoin:round; stroke-width:4; stroke-opacity:1; fill:none" points="793.591,773.326 997.947,773.326 997.947,568.969 793.591,568.969 793.591,773.326 "/>
<polyline clip-path="url(#clip452)" style="stroke:#000000; stroke-linecap:round; stroke-linejoin:round; stroke-width:4; stroke-opacity:1; fill:none" points="997.947,773.326 1202.3,773.326 1202.3,568.969 997.947,568.969 997.947,773.326 "/>
<polyline clip-path="url(#clip452)" style="stroke:#000000; stroke-linecap:round; stroke-linejoin:round; stroke-width:4; stroke-opacity:1; fill:none" points="1202.3,773.326 1406.66,773.326 1406.66,568.969 1202.3,568.969 1202.3,773.326 "/>
<polyline clip-path="url(#clip452)" style="stroke:#000000; stroke-linecap:round; stroke-linejoin:round; stroke-width:4; stroke-opacity:1; fill:none" points="1406.66,773.326 1611.02,773.326 1611.02,568.969 1406.66,568.969 1406.66,773.326 "/>
<polyline clip-path="url(#clip452)" style="stroke:#000000; stroke-linecap:round; stroke-linejoin:round; stroke-width:4; stroke-opacity:1; fill:none" points="1611.02,773.326 1815.37,773.326 1815.37,568.969 1611.02,568.969 1611.02,773.326 "/>
<polyline clip-path="url(#clip452)" style="stroke:#000000; stroke-linecap:round; stroke-linejoin:round; stroke-width:4; stroke-opacity:1; fill:none" points="1815.37,773.326 2019.73,773.326 2019.73,568.969 1815.37,568.969 1815.37,773.326 "/>
<polyline clip-path="url(#clip452)" style="stroke:#000000; stroke-linecap:round; stroke-linejoin:round; stroke-width:4; stroke-opacity:1; fill:none" points="589.234,568.969 793.591,568.969 793.591,364.613 589.234,364.613 589.234,568.969 "/>
<polyline clip-path="url(#clip452)" style="stroke:#000000; stroke-linecap:round; stroke-linejoin:round; stroke-width:4; stroke-opacity:1; fill:none" points="793.591,568.969 997.947,568.969 997.947,364.613 793.591,364.613 793.591,568.969 "/>
<polyline clip-path="url(#clip452)" style="stroke:#000000; stroke-linecap:round; stroke-linejoin:round; stroke-width:4; stroke-opacity:1; fill:none" points="997.947,568.969 1202.3,568.969 1202.3,364.613 997.947,364.613 997.947,568.969 "/>
<polyline clip-path="url(#clip452)" style="stroke:#000000; stroke-linecap:round; stroke-linejoin:round; stroke-width:4; stroke-opacity:1; fill:none" points="1202.3,568.969 1406.66,568.969 1406.66,364.613 1202.3,364.613 1202.3,568.969 "/>
<polyline clip-path="url(#clip452)" style="stroke:#000000; stroke-linecap:round; stroke-linejoin:round; stroke-width:4; stroke-opacity:1; fill:none" points="1406.66,568.969 1611.02,568.969 1611.02,364.613 1406.66,364.613 1406.66,568.969 "/>
<polyline clip-path="url(#clip452)" style="stroke:#000000; stroke-linecap:round; stroke-linejoin:round; stroke-width:4; stroke-opacity:1; fill:none" points="1611.02,568.969 1815.37,568.969 1815.37,364.613 1611.02,364.613 1611.02,568.969 "/>
<polyline clip-path="url(#clip452)" style="stroke:#000000; stroke-linecap:round; stroke-linejoin:round; stroke-width:4; stroke-opacity:1; fill:none" points="1815.37,568.969 2019.73,568.969 2019.73,364.613 1815.37,364.613 1815.37,568.969 "/>
<polyline clip-path="url(#clip452)" style="stroke:#000000; stroke-linecap:round; stroke-linejoin:round; stroke-width:4; stroke-opacity:1; fill:none" points="589.234,364.613 793.591,364.613 793.591,160.256 589.234,160.256 589.234,364.613 "/>
<polyline clip-path="url(#clip452)" style="stroke:#000000; stroke-linecap:round; stroke-linejoin:round; stroke-width:4; stroke-opacity:1; fill:none" points="793.591,364.613 997.947,364.613 997.947,160.256 793.591,160.256 793.591,364.613 "/>
<polyline clip-path="url(#clip452)" style="stroke:#000000; stroke-linecap:round; stroke-linejoin:round; stroke-width:4; stroke-opacity:1; fill:none" points="997.947,364.613 1202.3,364.613 1202.3,160.256 997.947,160.256 997.947,364.613 "/>
<polyline clip-path="url(#clip452)" style="stroke:#000000; stroke-linecap:round; stroke-linejoin:round; stroke-width:4; stroke-opacity:1; fill:none" points="1202.3,364.613 1406.66,364.613 1406.66,160.256 1202.3,160.256 1202.3,364.613 "/>
<polyline clip-path="url(#clip452)" style="stroke:#000000; stroke-linecap:round; stroke-linejoin:round; stroke-width:4; stroke-opacity:1; fill:none" points="1406.66,364.613 1611.02,364.613 1611.02,160.256 1406.66,160.256 1406.66,364.613 "/>
<polyline clip-path="url(#clip452)" style="stroke:#000000; stroke-linecap:round; stroke-linejoin:round; stroke-width:4; stroke-opacity:1; fill:none" points="1611.02,364.613 1815.37,364.613 1815.37,160.256 1611.02,160.256 1611.02,364.613 "/>
<polyline clip-path="url(#clip452)" style="stroke:#000000; stroke-linecap:round; stroke-linejoin:round; stroke-width:4; stroke-opacity:1; fill:none" points="1815.37,364.613 2019.73,364.613 2019.73,160.256 1815.37,160.256 1815.37,364.613 "/>
</svg>
